G04 DipTrace Beta 2.3.5.2*
%INBottom_Layer-GMaple-mini.GBL*%
%MOIN*%
%ADD14C,0.008*%
%ADD15C,0.016*%
%ADD21R,0.0531X0.0374*%
%ADD22R,0.0354X0.0276*%
%ADD24R,0.0236X0.0236*%
%ADD27R,0.0413X0.0256*%
%ADD28R,0.0591X0.0591*%
%ADD30C,0.0591*%
%ADD34R,0.0256X0.0413*%
%ADD35R,0.0276X0.0354*%
%ADD37R,0.0748X0.0433*%
%ADD38C,0.027*%
%ADD40C,0.04*%
%FSLAX44Y44*%
G04*
G70*
G90*
G75*
G01*
%LNBottom*%
%LPD*%
X22590Y10540D2*
D14*
X21741Y9691D1*
X20242D1*
X19429Y8878D1*
X17429D1*
X17117Y8566D1*
X16116D1*
X15747Y8196D1*
Y8222D1*
X21590Y10540D2*
X20991Y9941D1*
X20179D1*
X19304Y9066D1*
X17304D1*
X16992Y8753D1*
X15999D1*
X15607Y8361D1*
X20590Y10540D2*
X20466D1*
X19179Y9253D1*
X17179D1*
X16867Y8941D1*
X15929D1*
X15489Y8501D1*
X15468D1*
X19590Y10539D2*
Y10540D1*
X15190Y8779D2*
X15914Y9503D1*
X16554D1*
X16741Y9691D1*
X17367D1*
X17554Y9878D1*
X18242D1*
X18429Y10066D1*
X19117D1*
X19590Y10539D1*
X15051Y8918D2*
X15823Y9691D1*
X16366D1*
X16554Y9878D1*
X17242D1*
X17429Y10066D1*
X18117D1*
X18590Y10539D1*
Y10540D1*
X14911Y9057D2*
X15732Y9878D1*
X16241D1*
X16429Y10066D1*
X17117D1*
X17590Y10539D1*
Y10540D1*
X14772Y9197D2*
X15641Y10066D1*
X16116D1*
X16590Y10540D1*
X14633Y9336D2*
X15590Y10293D1*
Y10540D1*
X14494Y9475D2*
X14679Y9660D1*
Y10452D1*
X14590Y10540D1*
X13686Y9475D2*
X13306Y9856D1*
Y10335D1*
X13431Y10709D1*
X13590Y10540D1*
X13547Y9336D2*
X12590Y10293D1*
Y10540D1*
X13408Y9197D2*
X12476Y10128D1*
X11991D1*
X11590Y10529D1*
Y10540D1*
X12573Y8361D2*
X12244Y8691D1*
X10991D1*
X9590Y10091D1*
Y10540D1*
X12434Y8222D2*
X12153Y8503D1*
X10928D1*
X9303Y10128D1*
X8991D1*
X8590Y10529D1*
Y10540D1*
X12295Y8083D2*
X12062Y8316D1*
X10866D1*
X9241Y9941D1*
X8866D1*
X8678Y10128D1*
X7991D1*
X7590Y10529D1*
Y10540D1*
X12851Y6441D2*
X12101Y5690D1*
X10928D1*
X10553Y5315D1*
X8366D1*
X7590Y4540D1*
X12991Y6301D2*
X12192Y5503D1*
X10991D1*
X10616Y5128D1*
X9178D1*
X8591Y4540D1*
X8590D1*
X13130Y6162D2*
X12283Y5315D1*
X11086D1*
X10711Y4940D1*
X9990D1*
X9590Y4540D1*
X13269Y6023D2*
X12374Y5128D1*
X11178D1*
X10590Y4540D1*
X13408Y5884D2*
X12465Y4940D1*
X11990D1*
X11590Y4540D1*
X13547Y5745D2*
X12590Y4787D1*
Y4540D1*
X13686Y5605D2*
X13304Y5222D1*
Y4815D1*
X13579Y4540D1*
X13590D1*
X14772Y5884D2*
X15317Y5339D1*
Y5115D1*
X14743Y4540D1*
X14590D1*
X15190Y6301D2*
X16551Y4940D1*
X17242D1*
X17590Y4592D1*
Y4540D1*
X15329Y6441D2*
X16642Y5128D1*
X17929D1*
X18590Y4467D1*
Y4540D1*
X15468Y6580D2*
X16733Y5315D1*
X18117D1*
X18429Y5003D1*
X19117D1*
X19579Y4540D1*
X19590D1*
X15607Y6719D2*
X16823Y5503D1*
X18179D1*
X18492Y5190D1*
X19929D1*
X20579Y4540D1*
X20590D1*
X15747Y6858D2*
X16914Y5690D1*
X18304D1*
X18617Y5378D1*
X20054D1*
X20429Y5003D1*
X21117D1*
X21580Y4540D1*
X21590D1*
X15886Y6997D2*
X17005Y5878D1*
X18429D1*
X18742Y5565D1*
X20179D1*
X20554Y5190D1*
X21304D1*
X21492Y5003D1*
X22117D1*
X22580Y4540D1*
X22590D1*
X16025Y7136D2*
X17096Y6065D1*
X18554D1*
X18867Y5753D1*
X20304D1*
X20679Y5378D1*
X21429D1*
X21617Y5190D1*
X22992D1*
X23590Y4592D1*
Y4540D1*
X14911Y6023D2*
X15590Y5344D1*
Y4540D1*
X6946Y6590D2*
Y7040D1*
Y6590D2*
X6796Y6440D1*
X6740D1*
X6440Y6140D1*
X6434D1*
X6946Y6590D2*
X6971Y6565D1*
X7490D1*
X15051Y6162D2*
X16590Y4623D1*
Y4540D1*
X6946Y7940D2*
Y8390D1*
Y7940D2*
X7365D1*
X7490Y8065D1*
X13130Y8918D2*
X13483Y8565D1*
X13615D1*
X20992Y8385D2*
D15*
X20796Y8581D1*
Y8890D1*
X21611Y8269D2*
X21108D1*
X20992Y8385D1*
X20796Y8890D2*
D14*
X20865Y8960D1*
D15*
X21224D1*
X13269Y9057D2*
D14*
X12636Y9691D1*
X12366D1*
X20992Y7637D2*
D15*
X21033Y7678D1*
X21611D1*
X20992Y7637D2*
X20501D1*
X20429Y7566D1*
X12366Y9691D2*
D14*
X12429Y9628D1*
X12179Y9316D1*
X12712Y6580D2*
X12411Y6278D1*
X12010Y5878D1*
X10866D1*
X10491Y5503D1*
X8303D1*
X7740Y4940D1*
X6990D1*
X6590Y4540D1*
X12573Y6719D2*
X12304Y6450D1*
Y6386D1*
X12411Y6278D1*
X16784Y7190D2*
X16401D1*
X16111Y7481D1*
X15794D1*
X15543Y7230D1*
X13362D1*
X12712Y6580D1*
X16784Y7190D2*
Y6919D1*
X16830Y6873D1*
X9796Y8410D2*
X10085D1*
X10115Y8440D1*
X12115Y7565D2*
X12365D1*
X12671Y7260D1*
Y7107D1*
X12422Y6858D1*
X12434D1*
X20993Y7174D2*
D15*
X21053Y7114D1*
X21599D1*
X13834Y5290D2*
D14*
Y5357D1*
D15*
X14085Y5608D1*
D14*
Y5883D1*
X14195Y5993D1*
X14385D1*
X14633Y5745D1*
X9784Y5945D2*
X9797Y5958D1*
D15*
X9412D1*
X8118Y8316D2*
D14*
X8099D1*
D15*
X8536Y8753D1*
X6434Y8390D2*
D14*
X5865Y8959D1*
Y9065D1*
X9684Y7890D2*
D15*
X9315D1*
D14*
X9240Y7815D1*
X11184Y7890D2*
D15*
X10790D1*
X12295Y6997D2*
D14*
X11907Y6610D1*
X15886Y8083D2*
X15528Y7725D1*
X17296Y8290D2*
D15*
X17486Y8480D1*
X17647D1*
X17296Y7190D2*
D14*
X17293Y7187D1*
D15*
Y6868D1*
X19390Y6889D2*
D14*
X19634Y6645D1*
D15*
Y6351D1*
X21599Y7114D2*
D14*
X21819D1*
D15*
X22180Y6753D1*
X20245Y8890D2*
D14*
X20249Y8886D1*
D15*
Y8420D1*
X6434Y5690D2*
X5996D1*
X5851Y5835D1*
Y6049D1*
Y6248D1*
X6184Y6581D1*
X6426D1*
X6434Y6590D1*
X11854Y9691D2*
D14*
X11691D1*
X11145Y9144D1*
X5995Y7931D2*
X6106D1*
X6115Y7940D1*
X6434D1*
X18556Y6400D2*
X18657D1*
X18929Y6128D1*
X18044Y6400D2*
X17720D1*
X17662Y6458D1*
X15191Y7693D2*
X15155D1*
X15004Y7845D1*
Y8323D1*
X15320Y8640D1*
X15329D1*
X22805Y6065D2*
X22988Y6249D1*
Y7531D1*
X8865Y6440D2*
X8115Y5690D1*
X6946D1*
X8865Y6440D2*
X8365Y6940D1*
X7738D1*
X7504D1*
X7420Y7024D1*
X7738Y6940D2*
Y8688D1*
X8240Y9190D1*
X8461D1*
X8492Y9221D1*
X8117Y6440D2*
X7817Y6140D1*
X6946D1*
X8766Y7860D2*
X8866Y7960D1*
Y8316D1*
X8960Y8410D1*
X9284D1*
X7365Y8565D2*
X6533Y9397D1*
X5765D1*
X5272Y8905D1*
Y8263D1*
X5970Y7565D1*
X7391D1*
D15*
X7420Y7536D1*
X17806Y7917D2*
X18217D1*
X18240Y7940D1*
X5989Y7191D2*
D14*
X6115Y7065D1*
X6409D1*
X6434Y7040D1*
X18671Y7345D2*
D15*
Y7916D1*
X18673Y7917D1*
X19316D1*
X19390Y7991D1*
X20066D1*
X20086Y8011D1*
X20054Y7941D1*
X19992Y7878D1*
Y6940D1*
X20087Y6800D1*
X9512Y7343D2*
D14*
X9893D1*
X10240Y7690D1*
Y7846D1*
X10196Y7890D1*
X9512Y7343D2*
X10212D1*
X10240Y7315D1*
X12990Y7940D2*
Y8190D1*
X12712Y8468D1*
Y8501D1*
X10296Y5945D2*
X10476D1*
X10969Y6437D1*
X11091Y6315D1*
X11615D1*
X12990Y7440D2*
X13240Y7690D1*
Y8251D1*
X12851Y8640D1*
X12155Y7944D2*
X11971Y8128D1*
X10803D1*
X9178Y9753D1*
X8741D1*
X8553Y9941D1*
X7741D1*
X7553Y10128D1*
X6990D1*
X6590Y10529D1*
Y10540D1*
X14494Y5605D2*
X14809Y5290D1*
X14346D1*
X20993Y6426D2*
D15*
X21502D1*
X21599Y6523D1*
X21835D1*
X22293Y6065D1*
X8491Y7346D2*
D14*
X8254Y7583D1*
Y7860D1*
X12155Y7136D2*
X11959Y6940D1*
X11865D1*
X11740Y7065D1*
Y7315D1*
X11696Y7359D1*
Y7890D1*
X8491Y7346D2*
D15*
X8146D1*
D14*
X8115Y7315D1*
X16025Y7944D2*
X16405Y8324D1*
X16439Y8290D1*
D15*
X16784D1*
X17026Y7660D2*
D14*
X17042Y7645D1*
D15*
X17390D1*
X20993Y6426D2*
Y6065D1*
X14809Y5290D2*
D14*
X15023Y5225D1*
X18303Y6847D2*
D15*
X17805Y7345D1*
X12991Y8779D2*
D14*
X12769Y9001D1*
X12628D1*
X12505Y8878D1*
X11053D1*
X10590Y9341D1*
Y10540D1*
X16514Y7660D2*
X16456Y7602D1*
X15722D1*
X15510Y7390D1*
X14953D1*
X14371Y7972D1*
X13809D1*
X12991Y8790D1*
Y8779D1*
X16514Y7660D2*
X16806Y7952D1*
X17441D1*
X17706Y8216D1*
X18392D1*
X18554Y8378D1*
D38*
X7490Y6565D3*
Y8065D3*
X13615Y8565D3*
D40*
X21224Y8960D3*
X20429Y7566D3*
D38*
X12179Y9316D3*
X16830Y6873D3*
X10115Y8440D3*
X12115Y7565D3*
X14085Y5608D3*
X9412Y5958D3*
D3*
X8536Y8753D3*
X5865Y9065D3*
X9240Y7815D3*
X10790Y7890D3*
X11907Y6610D3*
X15528Y7725D3*
X14089Y7536D3*
X17647Y8480D3*
X17293Y6868D3*
D40*
X19634Y6351D3*
D3*
X22180Y6753D3*
X20249Y8420D3*
X5851Y6049D3*
D38*
X11145Y9144D3*
D40*
X5851Y6049D3*
D38*
X5995Y7931D3*
X18929Y6128D3*
X17662Y6458D3*
X15191Y7693D3*
X22988Y7531D3*
D3*
D40*
X7365Y8565D3*
D38*
X18240Y7940D3*
X5989Y7191D3*
X10240Y7315D3*
X12990Y7940D3*
X11615Y6315D3*
X12990Y7440D3*
X11740Y7315D3*
X8115D3*
X16405Y8324D3*
X17390Y7645D3*
D40*
X20993Y6065D3*
D38*
X15023Y5225D3*
D40*
X18303Y6847D3*
D38*
X18554Y8378D3*
G36*
X19744Y7676D2*
X19036D1*
Y8306D1*
X19744D1*
Y7676D1*
G37*
G36*
Y6574D2*
X19036D1*
Y7204D1*
X19744D1*
Y6574D1*
G37*
D21*
X21599Y6523D3*
Y7114D3*
X21611Y7678D3*
Y8269D3*
G36*
X12543Y9829D2*
Y9553D1*
X12189D1*
Y9829D1*
X12543D1*
G37*
G36*
X12031D2*
Y9553D1*
X11677D1*
Y9829D1*
X12031D1*
G37*
G36*
X11873Y8028D2*
Y7752D1*
X11519D1*
Y8028D1*
X11873D1*
G37*
G36*
X11361D2*
Y7752D1*
X11007D1*
Y8028D1*
X11361D1*
G37*
D22*
X14346Y5290D3*
X13834D3*
G36*
X16607Y8152D2*
Y8428D1*
X16961D1*
Y8152D1*
X16607D1*
G37*
G36*
X17119D2*
Y8428D1*
X17473D1*
Y8152D1*
X17119D1*
G37*
D22*
X10296Y5945D3*
X9784D3*
G36*
X10373Y8028D2*
Y7752D1*
X10019D1*
Y8028D1*
X10373D1*
G37*
G36*
X9861D2*
Y7752D1*
X9507D1*
Y8028D1*
X9861D1*
G37*
G36*
X6769Y8252D2*
Y8528D1*
X7123D1*
Y8252D1*
X6769D1*
G37*
G36*
X6257D2*
Y8528D1*
X6611D1*
Y8252D1*
X6257D1*
G37*
G36*
X6769Y6452D2*
Y6728D1*
X7123D1*
Y6452D1*
X6769D1*
G37*
G36*
X6257D2*
Y6728D1*
X6611D1*
Y6452D1*
X6257D1*
G37*
D24*
X18673Y7917D3*
X17806D3*
X18671Y7345D3*
X17805D3*
D27*
X20993Y7174D3*
Y6426D3*
X20087Y6800D3*
G36*
X21199Y8513D2*
Y8257D1*
X20785D1*
Y8513D1*
X21199D1*
G37*
G36*
Y7765D2*
Y7509D1*
X20785D1*
Y7765D1*
X21199D1*
G37*
G36*
X20293Y8139D2*
Y7883D1*
X19880D1*
Y8139D1*
X20293D1*
G37*
D28*
X4590Y10540D3*
D30*
X5590D3*
X6590D3*
X7590D3*
X8590D3*
X9590D3*
X10590D3*
X11590D3*
X12590D3*
X13590D3*
X14590D3*
X15590D3*
X16590D3*
X17590D3*
X18590D3*
X19590D3*
X20590D3*
X21590D3*
X22590D3*
X23590D3*
D28*
Y4540D3*
D30*
X22590D3*
X21590D3*
X20590D3*
X19590D3*
X18590D3*
X17590D3*
X16590D3*
X15590D3*
X14590D3*
X13590D3*
X12590D3*
X11590D3*
X10590D3*
X9590D3*
X8590D3*
X7590D3*
X6590D3*
X5590D3*
X4590D3*
G36*
X20973Y9048D2*
Y8733D1*
X20619D1*
Y9048D1*
X20973D1*
G37*
G36*
X20422D2*
Y8733D1*
X20067D1*
Y9048D1*
X20422D1*
G37*
G36*
X8738Y8522D2*
X8994D1*
Y8109D1*
X8738D1*
Y8522D1*
G37*
G36*
X7990D2*
X8246D1*
Y8109D1*
X7990D1*
Y8522D1*
G37*
G36*
X8364Y9428D2*
X8620D1*
Y9014D1*
X8364D1*
Y9428D1*
G37*
D34*
X8865Y6440D3*
X8117D3*
X8491Y7346D3*
G36*
X18221Y6538D2*
Y6262D1*
X17867D1*
Y6538D1*
X18221D1*
G37*
G36*
X18733D2*
Y6262D1*
X18379D1*
Y6538D1*
X18733D1*
G37*
D22*
X22805Y6065D3*
X22293D3*
G36*
X16691Y7798D2*
Y7522D1*
X16337D1*
Y7798D1*
X16691D1*
G37*
G36*
X17203D2*
Y7522D1*
X16849D1*
Y7798D1*
X17203D1*
G37*
G36*
X9973Y8548D2*
Y8272D1*
X9619D1*
Y8548D1*
X9973D1*
G37*
G36*
X9461D2*
Y8272D1*
X9107D1*
Y8548D1*
X9461D1*
G37*
D22*
X6434Y7940D3*
X6946D3*
G36*
X6611Y7178D2*
Y6902D1*
X6257D1*
Y7178D1*
X6611D1*
G37*
G36*
X7123D2*
Y6902D1*
X6769D1*
Y7178D1*
X7123D1*
G37*
D35*
X7420Y7024D3*
Y7536D3*
G36*
X17473Y7328D2*
Y7052D1*
X17119D1*
Y7328D1*
X17473D1*
G37*
G36*
X16961D2*
Y7052D1*
X16607D1*
Y7328D1*
X16961D1*
G37*
G36*
X6257Y6002D2*
Y6278D1*
X6611D1*
Y6002D1*
X6257D1*
G37*
G36*
X6769D2*
Y6278D1*
X7123D1*
Y6002D1*
X6769D1*
G37*
G36*
X6257Y5552D2*
Y5828D1*
X6611D1*
Y5552D1*
X6257D1*
G37*
G36*
X6769D2*
Y5828D1*
X7123D1*
Y5552D1*
X6769D1*
G37*
G36*
X8943Y7998D2*
Y7722D1*
X8589D1*
Y7998D1*
X8943D1*
G37*
G36*
X8431D2*
Y7722D1*
X8077D1*
Y7998D1*
X8431D1*
G37*
G36*
X11919Y8097D2*
X12002Y8180D1*
X12392Y7791D1*
X12308Y7707D1*
X11919Y8097D1*
G37*
G36*
X12058Y8236D2*
X12141Y8320D1*
X12531Y7930D1*
X12448Y7846D1*
X12058Y8236D1*
G37*
G36*
X12197Y8375D2*
X12281Y8459D1*
X12670Y8069D1*
X12587Y7986D1*
X12197Y8375D1*
G37*
G36*
X12336Y8515D2*
X12420Y8598D1*
X12810Y8208D1*
X12726Y8125D1*
X12336Y8515D1*
G37*
G36*
X12475Y8654D2*
X12559Y8737D1*
X12949Y8347D1*
X12865Y8264D1*
X12475Y8654D1*
G37*
G36*
X12615Y8793D2*
X12698Y8876D1*
X13088Y8487D1*
X13004Y8403D1*
X12615Y8793D1*
G37*
G36*
X12754Y8932D2*
X12837Y9016D1*
X13227Y8626D1*
X13144Y8542D1*
X12754Y8932D1*
G37*
G36*
X12893Y9071D2*
X12977Y9155D1*
X13366Y8765D1*
X13283Y8682D1*
X12893Y9071D1*
G37*
G36*
X13032Y9210D2*
X13116Y9294D1*
X13506Y8904D1*
X13422Y8821D1*
X13032Y9210D1*
G37*
G36*
X13171Y9350D2*
X13255Y9433D1*
X13645Y9043D1*
X13561Y8960D1*
X13171Y9350D1*
G37*
G36*
X13311Y9489D2*
X13394Y9572D1*
X13784Y9183D1*
X13700Y9099D1*
X13311Y9489D1*
G37*
G36*
X13450Y9628D2*
X13533Y9712D1*
X13923Y9322D1*
X13840Y9238D1*
X13450Y9628D1*
G37*
G36*
X14341Y9238D2*
X14257Y9322D1*
X14647Y9712D1*
X14730Y9628D1*
X14341Y9238D1*
G37*
G36*
X14480Y9099D2*
X14396Y9183D1*
X14786Y9572D1*
X14870Y9489D1*
X14480Y9099D1*
G37*
G36*
X14619Y8960D2*
X14536Y9043D1*
X14925Y9433D1*
X15009Y9350D1*
X14619Y8960D1*
G37*
G36*
X14758Y8821D2*
X14675Y8904D1*
X15065Y9294D1*
X15148Y9210D1*
X14758Y8821D1*
G37*
G36*
X14897Y8682D2*
X14814Y8765D1*
X15204Y9155D1*
X15287Y9071D1*
X14897Y8682D1*
G37*
G36*
X15037Y8542D2*
X14953Y8626D1*
X15343Y9016D1*
X15426Y8932D1*
X15037Y8542D1*
G37*
G36*
X15176Y8403D2*
X15092Y8487D1*
X15482Y8876D1*
X15566Y8793D1*
X15176Y8403D1*
G37*
G36*
X15315Y8264D2*
X15232Y8347D1*
X15621Y8737D1*
X15705Y8654D1*
X15315Y8264D1*
G37*
G36*
X15454Y8125D2*
X15371Y8208D1*
X15760Y8598D1*
X15844Y8515D1*
X15454Y8125D1*
G37*
G36*
X15593Y7986D2*
X15510Y8069D1*
X15900Y8459D1*
X15983Y8375D1*
X15593Y7986D1*
G37*
G36*
X15733Y7846D2*
X15649Y7930D1*
X16039Y8320D1*
X16122Y8236D1*
X15733Y7846D1*
G37*
G36*
X15872Y7707D2*
X15788Y7791D1*
X16178Y8180D1*
X16262Y8097D1*
X15872Y7707D1*
G37*
G36*
X15788Y7290D2*
X15872Y7373D1*
X16262Y6983D1*
X16178Y6900D1*
X15788Y7290D1*
G37*
G36*
X15649Y7150D2*
X15733Y7234D1*
X16122Y6844D1*
X16039Y6761D1*
X15649Y7150D1*
G37*
G36*
X15510Y7011D2*
X15593Y7095D1*
X15983Y6705D1*
X15900Y6621D1*
X15510Y7011D1*
G37*
G36*
X15371Y6872D2*
X15454Y6956D1*
X15844Y6566D1*
X15760Y6482D1*
X15371Y6872D1*
G37*
G36*
X15232Y6733D2*
X15315Y6816D1*
X15705Y6427D1*
X15621Y6343D1*
X15232Y6733D1*
G37*
G36*
X15092Y6594D2*
X15176Y6677D1*
X15566Y6287D1*
X15482Y6204D1*
X15092Y6594D1*
G37*
G36*
X14953Y6454D2*
X15037Y6538D1*
X15426Y6148D1*
X15343Y6065D1*
X14953Y6454D1*
G37*
G36*
X14814Y6315D2*
X14897Y6399D1*
X15287Y6009D1*
X15204Y5926D1*
X14814Y6315D1*
G37*
G36*
X14675Y6176D2*
X14758Y6260D1*
X15148Y5870D1*
X15065Y5786D1*
X14675Y6176D1*
G37*
G36*
X14536Y6037D2*
X14619Y6120D1*
X15009Y5731D1*
X14925Y5647D1*
X14536Y6037D1*
G37*
G36*
X14396Y5898D2*
X14480Y5981D1*
X14870Y5591D1*
X14786Y5508D1*
X14396Y5898D1*
G37*
G36*
X14257Y5758D2*
X14341Y5842D1*
X14730Y5452D1*
X14647Y5369D1*
X14257Y5758D1*
G37*
G36*
X13533Y5369D2*
X13450Y5452D1*
X13840Y5842D1*
X13923Y5758D1*
X13533Y5369D1*
G37*
G36*
X13394Y5508D2*
X13311Y5591D1*
X13700Y5981D1*
X13784Y5898D1*
X13394Y5508D1*
G37*
G36*
X13255Y5647D2*
X13171Y5731D1*
X13561Y6120D1*
X13645Y6037D1*
X13255Y5647D1*
G37*
G36*
X13116Y5786D2*
X13032Y5870D1*
X13422Y6260D1*
X13506Y6176D1*
X13116Y5786D1*
G37*
G36*
X12977Y5926D2*
X12893Y6009D1*
X13283Y6399D1*
X13366Y6315D1*
X12977Y5926D1*
G37*
G36*
X12837Y6065D2*
X12754Y6148D1*
X13144Y6538D1*
X13227Y6454D1*
X12837Y6065D1*
G37*
G36*
X12698Y6204D2*
X12615Y6287D1*
X13004Y6677D1*
X13088Y6594D1*
X12698Y6204D1*
G37*
G36*
X12559Y6343D2*
X12475Y6427D1*
X12865Y6816D1*
X12949Y6733D1*
X12559Y6343D1*
G37*
G36*
X12420Y6482D2*
X12336Y6566D1*
X12726Y6956D1*
X12810Y6872D1*
X12420Y6482D1*
G37*
G36*
X12281Y6621D2*
X12197Y6705D1*
X12587Y7095D1*
X12670Y7011D1*
X12281Y6621D1*
G37*
G36*
X12141Y6761D2*
X12058Y6844D1*
X12448Y7234D1*
X12531Y7150D1*
X12141Y6761D1*
G37*
G36*
X12002Y6900D2*
X11919Y6983D1*
X12308Y7373D1*
X12392Y7290D1*
X12002Y6900D1*
G37*
D37*
X10969Y6437D3*
Y7343D3*
X9512Y6437D3*
Y7343D3*
M02*
