M48
INCH
T01C0.015
T02C0.02
T03C0.0354
%
T01
X+007490Y+006565
X+008115Y+007315
X+007490Y+008065
X+008536Y+008753
X+009240Y+007815
X+010115Y+008440
X+010790Y+007890
X+010240Y+007315
X+011740Y+007315
X+012115Y+007565
X+012990Y+007440
X+012990Y+007940
X+013615Y+008565
X+014089Y+007536
X+015191Y+007693
X+015528Y+007725
X+016405Y+008324
X+017390Y+007645
X+017293Y+006868
X+016830Y+006873
X+017662Y+006458
X+018929Y+006128
X+018240Y+007940
X+018554Y+008378
X+017647Y+008480
X+015023Y+005225
X+014085Y+005608
X+011907Y+006610
X+011615Y+006315
X+009412Y+005958
X+011145Y+009144
X+012179Y+009316
X+005865Y+009065
X+005995Y+007931
X+005989Y+007191
X+022988Y+007531
T02
X+021224Y+008960
X+020249Y+008420
X+020429Y+007566
X+019634Y+006351
X+020993Y+006065
X+022180Y+006753
X+018303Y+006847
X+007365Y+008565
X+005851Y+006049
T03
X+004590Y+010540
X+005590Y+010540
X+006590Y+010540
X+007590Y+010540
X+008590Y+010540
X+009590Y+010540
X+010590Y+010540
X+011590Y+010540
X+012590Y+010540
X+013590Y+010540
X+014590Y+010540
X+015590Y+010540
X+016590Y+010540
X+017590Y+010540
X+018590Y+010540
X+019590Y+010540
X+020590Y+010540
X+021590Y+010540
X+022590Y+010540
X+023590Y+010540
X+023590Y+004540
X+022590Y+004540
X+021590Y+004540
X+020590Y+004540
X+019590Y+004540
X+018590Y+004540
X+017590Y+004540
X+016590Y+004540
X+015590Y+004540
X+014590Y+004540
X+013590Y+004540
X+012590Y+004540
X+011590Y+004540
X+010590Y+004540
X+009590Y+004540
X+008590Y+004540
X+007590Y+004540
X+006590Y+004540
X+005590Y+004540
X+004590Y+004540
X+005717Y+006694
X+005717Y+008426
T00
M30
