G04 DipTrace Beta 2.3.5.2*
%INSolder_Stop_Mask_Top-GMaple-mini.GTS*%
%MOIN*%
%ADD42C,0.0354*%
%ADD48R,0.0356X0.0435*%
%ADD52R,0.1065X0.0868*%
%ADD54R,0.0986X0.0277*%
%ADD56C,0.0671*%
%ADD60R,0.0671X0.0671*%
%ADD64R,0.071X0.0789*%
%FSLAX44Y44*%
G04*
G70*
G90*
G75*
G01*
%LNTopMask*%
%LPD*%
D64*
X13539Y7540D3*
X14641D3*
D60*
X4590Y10540D3*
D56*
X5590D3*
X6590D3*
X7590D3*
X8590D3*
X9590D3*
X10590D3*
X11590D3*
X12590D3*
X13590D3*
X14590D3*
X15590D3*
X16590D3*
X17590D3*
X18590D3*
X19590D3*
X20590D3*
X21590D3*
X22590D3*
X23590D3*
D60*
Y4540D3*
D56*
X22590D3*
X21590D3*
X20590D3*
X19590D3*
X18590D3*
X17590D3*
X16590D3*
X15590D3*
X14590D3*
X13590D3*
X12590D3*
X11590D3*
X10590D3*
X9590D3*
X8590D3*
X7590D3*
X6590D3*
X5590D3*
X4590D3*
D54*
X6740Y8190D3*
Y7875D3*
Y7560D3*
Y7245D3*
Y6930D3*
D52*
X6701Y9312D3*
Y5808D3*
X4535Y9312D3*
Y5808D3*
D42*
X5717Y8426D3*
Y6694D3*
D48*
X18940Y6714D3*
Y7226D3*
G36*
X23580Y8092D2*
X24015D1*
Y7618D1*
X23580D1*
Y8092D1*
G37*
G36*
X21966D2*
X22400D1*
Y7618D1*
X21966D1*
Y8092D1*
G37*
G36*
Y7462D2*
X22400D1*
Y6988D1*
X21966D1*
Y7462D1*
G37*
G36*
X23580D2*
X24015D1*
Y6988D1*
X23580D1*
Y7462D1*
G37*
G36*
X21315Y7618D2*
X20880D1*
Y8092D1*
X21315D1*
Y7618D1*
G37*
G36*
X19700D2*
X19266D1*
Y8092D1*
X19700D1*
Y7618D1*
G37*
G36*
Y6988D2*
X19266D1*
Y7462D1*
X19700D1*
Y6988D1*
G37*
G36*
X21315D2*
X20880D1*
Y7462D1*
X21315D1*
Y6988D1*
G37*
M02*
