G04 DipTrace Beta 2.3.5.2*
%INInner_Layer_1-GMaple-mini.GL1*%
%MOIN*%
%ADD14C,0.008*%
%ADD15C,0.016*%
%ADD17C,0.025*%
%ADD18C,0.013*%
%ADD29C,0.0591*%
%ADD38C,0.027*%
%ADD40C,0.04*%
%FSLAX44Y44*%
G04*
G70*
G90*
G75*
G01*
%LNInner1_Plane*%
%LPD*%
X13615Y8565D2*
D14*
X13740D1*
X21224Y8960D2*
Y9004D1*
X14085Y5608D2*
Y5640D1*
X9412Y5958D2*
Y5940D1*
X9365D1*
X9412Y5958D2*
X9312Y5857D1*
X8536Y8753D2*
X8365D1*
X5865Y9065D2*
X5740D1*
X9240Y7815D2*
Y7940D1*
X10790Y7890D2*
D15*
X10865Y7940D1*
X11907Y6610D2*
D14*
X11879Y6639D1*
X11843D1*
X15528Y7725D2*
X15489Y7707D1*
X15440D1*
X14089Y7536D2*
Y7469D1*
X17647Y8480D2*
X17663Y8496D1*
X17293Y6868D2*
X17309D1*
X19634Y6351D2*
X19626Y6359D1*
Y6424D1*
X22180Y6753D2*
Y6838D1*
X22149Y6807D1*
X20249Y8420D2*
Y8447D1*
X5851Y6049D2*
D15*
X5871Y6068D1*
X11145Y9144D2*
D14*
X11303Y9128D1*
X16405Y8324D2*
Y8347D1*
D38*
X7490Y6565D3*
Y8065D3*
X13615Y8565D3*
D40*
X21224Y8960D3*
X20429Y7566D3*
D38*
X12179Y9316D3*
X16830Y6873D3*
X10115Y8440D3*
X12115Y7565D3*
X14085Y5608D3*
X9412Y5958D3*
D3*
X8536Y8753D3*
X5865Y9065D3*
X9240Y7815D3*
X10790Y7890D3*
X11907Y6610D3*
X15528Y7725D3*
X14089Y7536D3*
X17647Y8480D3*
X17293Y6868D3*
D40*
X19634Y6351D3*
D3*
X22180Y6753D3*
X20249Y8420D3*
X5851Y6049D3*
D38*
X11145Y9144D3*
D40*
X5851Y6049D3*
D38*
X5995Y7931D3*
X18929Y6128D3*
X17662Y6458D3*
X15191Y7693D3*
X22988Y7531D3*
D3*
D40*
X7365Y8565D3*
D38*
X18240Y7940D3*
X5989Y7191D3*
X10240Y7315D3*
X12990Y7940D3*
X11615Y6315D3*
X12990Y7440D3*
X11740Y7315D3*
X8115D3*
X16405Y8324D3*
X17390Y7645D3*
D40*
X20993Y6065D3*
D38*
X15023Y5225D3*
D40*
X18303Y6847D3*
D38*
X18554Y8378D3*
X4267Y9946D2*
D17*
X5967D1*
X10267D2*
X20534D1*
X4267Y9697D2*
X11955D1*
X12400D2*
X20784D1*
X12611Y9449D2*
X21034D1*
X12685Y9200D2*
X21280D1*
X12931Y8951D2*
X15299D1*
X20681D2*
X21405D1*
X13181Y8703D2*
X15053D1*
X13431Y8454D2*
X14803D1*
X5089Y10288D2*
X5030Y10193D1*
X4942Y10104D1*
X4837Y10037D1*
X4719Y9995D1*
X4595Y9980D1*
X4471Y9993D1*
X4353Y10033D1*
X4238Y10106D1*
X4240Y9628D1*
X11885D1*
X11921Y9660D1*
X12030Y9719D1*
X12152Y9745D1*
X12276Y9734D1*
X12392Y9689D1*
X12490Y9612D1*
X12562Y9510D1*
X12602Y9392D1*
X12609Y9316D1*
X12600Y9258D1*
X13479Y8379D1*
X14753Y8378D1*
X15532Y9155D1*
X15616Y9191D1*
X17370Y9189D1*
X19367Y9191D1*
X20370Y9189D1*
X20455Y9154D1*
X20859Y8751D1*
X21430Y8753D1*
Y9077D1*
X20524Y9982D1*
X20353Y10033D1*
X20247Y10098D1*
X20157Y10185D1*
X20091Y10286D1*
X20030Y10193D1*
X19942Y10104D1*
X19837Y10037D1*
X19719Y9995D1*
X19595Y9980D1*
X19471Y9993D1*
X19353Y10033D1*
X19247Y10098D1*
X19157Y10185D1*
X19091Y10286D1*
X19030Y10193D1*
X18942Y10104D1*
X18837Y10037D1*
X18719Y9995D1*
X18595Y9980D1*
X18471Y9993D1*
X18353Y10033D1*
X18247Y10098D1*
X18157Y10185D1*
X18091Y10286D1*
X18030Y10193D1*
X17942Y10104D1*
X17837Y10037D1*
X17719Y9995D1*
X17595Y9980D1*
X17471Y9993D1*
X17353Y10033D1*
X17247Y10098D1*
X17157Y10185D1*
X17091Y10286D1*
X17030Y10193D1*
X16942Y10104D1*
X16837Y10037D1*
X16719Y9995D1*
X16595Y9980D1*
X16471Y9993D1*
X16353Y10033D1*
X16247Y10098D1*
X16157Y10185D1*
X16091Y10286D1*
X16030Y10193D1*
X15942Y10104D1*
X15837Y10037D1*
X15719Y9995D1*
X15595Y9980D1*
X15471Y9993D1*
X15353Y10033D1*
X15247Y10098D1*
X15157Y10185D1*
X15091Y10286D1*
X15030Y10193D1*
X14942Y10104D1*
X14837Y10037D1*
X14719Y9995D1*
X14595Y9980D1*
X14471Y9993D1*
X14353Y10033D1*
X14247Y10098D1*
X14157Y10185D1*
X14091Y10286D1*
X14030Y10193D1*
X13942Y10104D1*
X13837Y10037D1*
X13719Y9995D1*
X13595Y9980D1*
X13471Y9993D1*
X13353Y10033D1*
X13247Y10098D1*
X13157Y10185D1*
X13091Y10286D1*
X13030Y10193D1*
X12942Y10104D1*
X12837Y10037D1*
X12719Y9995D1*
X12595Y9980D1*
X12471Y9993D1*
X12353Y10033D1*
X12247Y10098D1*
X12157Y10185D1*
X12091Y10286D1*
X12030Y10193D1*
X11942Y10104D1*
X11837Y10037D1*
X11719Y9995D1*
X11595Y9980D1*
X11471Y9993D1*
X11353Y10033D1*
X11247Y10098D1*
X11157Y10185D1*
X11091Y10286D1*
X11030Y10193D1*
X10942Y10104D1*
X10837Y10037D1*
X10719Y9995D1*
X10595Y9980D1*
X10471Y9993D1*
X10353Y10033D1*
X10238Y10106D1*
X10241Y10066D1*
X10180Y9960D1*
X10116Y9941D1*
X6115D1*
X6010Y10002D1*
X5990Y10066D1*
Y10148D1*
X5901Y10074D1*
X5791Y10017D1*
X5670Y9986D1*
X5545Y9982D1*
X5423Y10005D1*
X5309Y10056D1*
X5208Y10130D1*
X5127Y10225D1*
X5090Y10287D1*
X5590Y10540D2*
D18*
X5986Y10144D1*
X5590Y10540D2*
X5194Y10144D1*
X21126Y9946D2*
D17*
X23901D1*
X21373Y9697D2*
X23901D1*
X21623Y9449D2*
X23901D1*
X4267Y9200D2*
X11741D1*
X21830D2*
X23901D1*
X4267Y8951D2*
X7190D1*
X7541D2*
X11924D1*
X21830D2*
X23901D1*
X4267Y8703D2*
X5346D1*
X6087D2*
X6948D1*
X7783D2*
X9858D1*
X10373D2*
X12588D1*
X15642D2*
X16178D1*
X16634D2*
X18397D1*
X18709D2*
X20280D1*
X21830D2*
X23901D1*
X4267Y8454D2*
X5252D1*
X6181D2*
X6940D1*
X7791D2*
X9741D1*
X10490D2*
X12838D1*
X15392D2*
X15971D1*
X16841D2*
X18186D1*
X18919D2*
X20526D1*
X21830D2*
X23901D1*
X4267Y8205D2*
X5307D1*
X6236D2*
X7135D1*
X7837D2*
X9830D1*
X10400D2*
X12737D1*
X15146D2*
X15967D1*
X16845D2*
X17987D1*
X18884D2*
X23901D1*
X4267Y7957D2*
X5619D1*
X6369D2*
X7131D1*
X7849D2*
X12616D1*
X13365D2*
X14936D1*
X15447D2*
X16159D1*
X16654D2*
X17069D1*
X17712D2*
X17866D1*
X18615D2*
X20100D1*
X20759D2*
X23901D1*
X4267Y7708D2*
X5701D1*
X6291D2*
X7916D1*
X8314D2*
X11541D1*
X12459D2*
X12705D1*
X13275D2*
X14819D1*
X15568D2*
X16940D1*
X17841D2*
X17952D1*
X18525D2*
X19932D1*
X20927D2*
X22662D1*
X23314D2*
X23901D1*
X4267Y7459D2*
X5741D1*
X6240D2*
X7686D1*
X8544D2*
X9897D1*
X10584D2*
X11311D1*
X12474D2*
X12616D1*
X13365D2*
X14905D1*
X15478D2*
X16979D1*
X17802D2*
X19920D1*
X20939D2*
X22619D1*
X23357D2*
X23901D1*
X4267Y7211D2*
X5616D1*
X6365D2*
X7674D1*
X8556D2*
X9881D1*
X10599D2*
X11299D1*
X12181D2*
X12701D1*
X13279D2*
X16713D1*
X16947D2*
X18076D1*
X18529D2*
X20061D1*
X20798D2*
X22823D1*
X23154D2*
X23901D1*
X4267Y6962D2*
X5338D1*
X6279D2*
X7846D1*
X8384D2*
X11471D1*
X12009D2*
X16467D1*
X17193D2*
X17877D1*
X18728D2*
X23901D1*
X4267Y6713D2*
X5248D1*
X6185D2*
X7147D1*
X7834D2*
X16494D1*
X17166D2*
X17397D1*
X18720D2*
X23901D1*
X4267Y6465D2*
X5315D1*
X6119D2*
X7131D1*
X7849D2*
X11276D1*
X11955D2*
X17287D1*
X18037D2*
X18119D1*
X18490D2*
X18811D1*
X19048D2*
X20674D1*
X21310D2*
X23901D1*
X4267Y6216D2*
X7444D1*
X7533D2*
X11256D1*
X11974D2*
X17385D1*
X17939D2*
X18565D1*
X19294D2*
X20498D1*
X21490D2*
X23901D1*
X4267Y5967D2*
X11553D1*
X11677D2*
X18592D1*
X19263D2*
X20483D1*
X21501D2*
X23901D1*
X4267Y5718D2*
X20616D1*
X21373D2*
X23901D1*
X4267Y5470D2*
X14643D1*
X15400D2*
X23901D1*
X4267Y5221D2*
X14569D1*
X15478D2*
X23901D1*
X4970Y4972D2*
X5209D1*
X5970D2*
X6209D1*
X6970D2*
X7209D1*
X7970D2*
X8209D1*
X8970D2*
X9209D1*
X9970D2*
X10209D1*
X10970D2*
X11209D1*
X11970D2*
X12209D1*
X12970D2*
X13209D1*
X13970D2*
X14209D1*
X15970D2*
X16209D1*
X16970D2*
X17209D1*
X17970D2*
X18209D1*
X18970D2*
X19209D1*
X19970D2*
X20209D1*
X20970D2*
X21209D1*
X21970D2*
X22209D1*
X22970D2*
X23209D1*
X21089Y10288D2*
X21030Y10193D1*
X20944Y10107D1*
X21307Y9740D1*
X21769Y9275D1*
X21805Y9191D1*
Y8441D1*
X21743Y8335D1*
X21680Y8316D1*
X20739Y8317D1*
X20654Y8352D1*
X20192Y8814D1*
X17117Y8816D1*
X15732D1*
X14951Y8039D1*
X14866Y8003D1*
X13363Y8005D1*
X13340Y7940D1*
X13318Y7818D1*
X13255Y7711D1*
X13233Y7694D1*
X13285Y7629D1*
X13332Y7514D1*
X13340Y7440D1*
X13318Y7318D1*
X13255Y7211D1*
X13158Y7133D1*
X13040Y7094D1*
X12916Y7098D1*
X12801Y7146D1*
X12710Y7231D1*
X12654Y7342D1*
X12641Y7466D1*
X12672Y7586D1*
X12746Y7690D1*
X12710Y7731D1*
X12654Y7842D1*
X12641Y7966D1*
X12672Y8086D1*
X12743Y8188D1*
X12845Y8259D1*
X12966Y8289D1*
X13039Y8281D1*
X12380Y8937D1*
X12229Y8889D1*
X12104Y8892D1*
X11986Y8931D1*
X11884Y9003D1*
X11806Y9100D1*
X11760Y9216D1*
X11757Y9251D1*
X10866Y9253D1*
X4240D1*
Y4976D1*
X4335Y5039D1*
X4451Y5083D1*
X4575Y5100D1*
X4699Y5090D1*
X4818Y5052D1*
X4926Y4989D1*
X5017Y4903D1*
X5091Y4789D1*
X5130Y4860D1*
X5212Y4953D1*
X5313Y5027D1*
X5427Y5076D1*
X5550Y5099D1*
X5675Y5094D1*
X5795Y5062D1*
X5905Y5003D1*
X6000Y4922D1*
X6074Y4822D1*
X6090Y4792D1*
X6145Y4880D1*
X6231Y4970D1*
X6335Y5039D1*
X6451Y5083D1*
X6575Y5100D1*
X6699Y5090D1*
X6818Y5052D1*
X6926Y4989D1*
X7017Y4903D1*
X7091Y4789D1*
X7145Y4880D1*
X7231Y4970D1*
X7335Y5039D1*
X7451Y5083D1*
X7575Y5100D1*
X7699Y5090D1*
X7818Y5052D1*
X7926Y4989D1*
X8017Y4903D1*
X8091Y4789D1*
X8145Y4880D1*
X8231Y4970D1*
X8335Y5039D1*
X8451Y5083D1*
X8575Y5100D1*
X8699Y5090D1*
X8818Y5052D1*
X8926Y4989D1*
X9017Y4903D1*
X9091Y4789D1*
X9145Y4880D1*
X9231Y4970D1*
X9335Y5039D1*
X9451Y5083D1*
X9575Y5100D1*
X9699Y5090D1*
X9818Y5052D1*
X9926Y4989D1*
X10017Y4903D1*
X10091Y4789D1*
X10145Y4880D1*
X10231Y4970D1*
X10335Y5039D1*
X10451Y5083D1*
X10575Y5100D1*
X10699Y5090D1*
X10818Y5052D1*
X10926Y4989D1*
X11017Y4903D1*
X11091Y4789D1*
X11145Y4880D1*
X11231Y4970D1*
X11335Y5039D1*
X11451Y5083D1*
X11575Y5100D1*
X11699Y5090D1*
X11818Y5052D1*
X11926Y4989D1*
X12017Y4903D1*
X12091Y4789D1*
X12145Y4880D1*
X12231Y4970D1*
X12335Y5039D1*
X12451Y5083D1*
X12575Y5100D1*
X12699Y5090D1*
X12818Y5052D1*
X12926Y4989D1*
X13017Y4903D1*
X13091Y4789D1*
X13145Y4880D1*
X13231Y4970D1*
X13335Y5039D1*
X13451Y5083D1*
X13575Y5100D1*
X13699Y5090D1*
X13818Y5052D1*
X13926Y4989D1*
X14017Y4903D1*
X14091Y4789D1*
X14145Y4880D1*
X14231Y4970D1*
X14335Y5039D1*
X14451Y5083D1*
X14610Y5097D1*
X14594Y5249D1*
X14618Y5371D1*
X14677Y5481D1*
X14765Y5569D1*
X14875Y5628D1*
X14997Y5654D1*
X15121Y5643D1*
X15237Y5598D1*
X15335Y5521D1*
X15406Y5419D1*
X15446Y5301D1*
X15453Y5225D1*
X15435Y5101D1*
X15423Y5077D1*
X15575Y5100D1*
X15699Y5090D1*
X15818Y5052D1*
X15926Y4989D1*
X16017Y4903D1*
X16091Y4789D1*
X16145Y4880D1*
X16231Y4970D1*
X16335Y5039D1*
X16451Y5083D1*
X16575Y5100D1*
X16699Y5090D1*
X16818Y5052D1*
X16926Y4989D1*
X17017Y4903D1*
X17091Y4789D1*
X17145Y4880D1*
X17231Y4970D1*
X17335Y5039D1*
X17451Y5083D1*
X17575Y5100D1*
X17699Y5090D1*
X17818Y5052D1*
X17926Y4989D1*
X18017Y4903D1*
X18091Y4789D1*
X18145Y4880D1*
X18231Y4970D1*
X18335Y5039D1*
X18451Y5083D1*
X18575Y5100D1*
X18699Y5090D1*
X18818Y5052D1*
X18926Y4989D1*
X19017Y4903D1*
X19091Y4789D1*
X19145Y4880D1*
X19231Y4970D1*
X19335Y5039D1*
X19451Y5083D1*
X19575Y5100D1*
X19699Y5090D1*
X19818Y5052D1*
X19926Y4989D1*
X20017Y4903D1*
X20091Y4789D1*
X20145Y4880D1*
X20231Y4970D1*
X20335Y5039D1*
X20451Y5083D1*
X20575Y5100D1*
X20699Y5090D1*
X20818Y5052D1*
X20926Y4989D1*
X21017Y4903D1*
X21091Y4789D1*
X21145Y4880D1*
X21231Y4970D1*
X21335Y5039D1*
X21451Y5083D1*
X21575Y5100D1*
X21699Y5090D1*
X21818Y5052D1*
X21926Y4989D1*
X22017Y4903D1*
X22091Y4789D1*
X22145Y4880D1*
X22231Y4970D1*
X22335Y5039D1*
X22451Y5083D1*
X22575Y5100D1*
X22699Y5090D1*
X22818Y5052D1*
X22926Y4989D1*
X23017Y4903D1*
X23091Y4789D1*
X23145Y4880D1*
X23231Y4970D1*
X23335Y5039D1*
X23451Y5083D1*
X23575Y5100D1*
X23699Y5090D1*
X23818Y5052D1*
X23929Y4986D1*
X23928Y10093D1*
X23837Y10037D1*
X23719Y9995D1*
X23595Y9980D1*
X23471Y9993D1*
X23353Y10033D1*
X23247Y10098D1*
X23157Y10185D1*
X23091Y10286D1*
X23030Y10193D1*
X22942Y10104D1*
X22837Y10037D1*
X22719Y9995D1*
X22595Y9980D1*
X22471Y9993D1*
X22353Y10033D1*
X22247Y10098D1*
X22157Y10185D1*
X22091Y10286D1*
X22030Y10193D1*
X21942Y10104D1*
X21837Y10037D1*
X21719Y9995D1*
X21595Y9980D1*
X21471Y9993D1*
X21353Y10033D1*
X21247Y10098D1*
X21157Y10185D1*
X21091Y10286D1*
X6141Y8303D2*
X6206Y8211D1*
X6290Y8120D1*
X6337Y8005D1*
X6345Y7931D1*
X6323Y7809D1*
X6260Y7702D1*
X6163Y7624D1*
X6045Y7585D1*
X5921Y7589D1*
X5806Y7637D1*
X5715Y7722D1*
X5659Y7833D1*
X5646Y7957D1*
X5655Y7991D1*
X5541Y8021D1*
X5435Y8086D1*
X5351Y8178D1*
X5296Y8290D1*
X5275Y8412D1*
X5288Y8536D1*
X5336Y8651D1*
X5414Y8749D1*
X5516Y8820D1*
X5633Y8861D1*
X5758Y8867D1*
X5879Y8838D1*
X5987Y8776D1*
X6074Y8687D1*
X6132Y8577D1*
X6159Y8426D1*
X6141Y8303D1*
Y6571D2*
X6090Y6457D1*
X6009Y6362D1*
X5905Y6294D1*
X5786Y6257D1*
X5661Y6255D1*
X5541Y6288D1*
X5435Y6353D1*
X5351Y6445D1*
X5296Y6557D1*
X5275Y6680D1*
X5288Y6804D1*
X5336Y6919D1*
X5414Y7016D1*
X5516Y7088D1*
X5637Y7129D1*
X5640Y7217D1*
X5671Y7337D1*
X5742Y7439D1*
X5844Y7510D1*
X5965Y7540D1*
X6088Y7527D1*
X6199Y7471D1*
X6284Y7380D1*
X6331Y7265D1*
X6339Y7191D1*
X6317Y7069D1*
X6253Y6962D1*
X6157Y6884D1*
X6123Y6873D1*
X6158Y6722D1*
X6141Y6571D1*
X7818Y6443D2*
X7755Y6336D1*
X7658Y6258D1*
X7540Y6219D1*
X7416Y6223D1*
X7301Y6271D1*
X7210Y6356D1*
X7154Y6467D1*
X7141Y6591D1*
X7172Y6711D1*
X7243Y6813D1*
X7345Y6884D1*
X7466Y6914D1*
X7589Y6901D1*
X7701Y6845D1*
X7785Y6754D1*
X7832Y6639D1*
X7840Y6565D1*
X7818Y6443D1*
Y7943D2*
X7755Y7836D1*
X7658Y7758D1*
X7540Y7719D1*
X7416Y7723D1*
X7301Y7771D1*
X7210Y7856D1*
X7154Y7967D1*
X7141Y8091D1*
X7169Y8200D1*
X7056Y8288D1*
X6988Y8392D1*
X6954Y8512D1*
X6956Y8636D1*
X6996Y8754D1*
X7068Y8855D1*
X7168Y8930D1*
X7285Y8972D1*
X7409Y8978D1*
X7530Y8946D1*
X7635Y8880D1*
X7717Y8786D1*
X7766Y8671D1*
X7780Y8565D1*
X7761Y8442D1*
X7709Y8334D1*
X7785Y8254D1*
X7832Y8139D1*
X7840Y8065D1*
X7818Y7943D1*
X20909Y7442D2*
X20863Y7326D1*
X20789Y7225D1*
X20693Y7146D1*
X20580Y7094D1*
X20457Y7071D1*
X20333Y7080D1*
X20214Y7120D1*
X20110Y7188D1*
X20025Y7279D1*
X19967Y7389D1*
X19937Y7511D1*
X19939Y7635D1*
X19972Y7755D1*
X20034Y7864D1*
X20121Y7953D1*
X20228Y8018D1*
X20347Y8054D1*
X20472Y8059D1*
X20594Y8033D1*
X20705Y7977D1*
X20799Y7895D1*
X20870Y7792D1*
X20912Y7675D1*
X20924Y7566D1*
X20909Y7442D1*
X17158Y6750D2*
X17095Y6644D1*
X16998Y6566D1*
X16880Y6526D1*
X16756Y6531D1*
X16641Y6579D1*
X16550Y6663D1*
X16494Y6775D1*
X16481Y6898D1*
X16512Y7019D1*
X16583Y7121D1*
X16685Y7191D1*
X16806Y7222D1*
X16929Y7208D1*
X17041Y7153D1*
X17125Y7061D1*
X17172Y6946D1*
X17180Y6873D1*
X17158Y6750D1*
X10443Y8318D2*
X10380Y8211D1*
X10283Y8133D1*
X10165Y8094D1*
X10041Y8098D1*
X9926Y8146D1*
X9835Y8231D1*
X9779Y8342D1*
X9766Y8466D1*
X9797Y8586D1*
X9868Y8688D1*
X9970Y8759D1*
X10091Y8789D1*
X10214Y8776D1*
X10326Y8720D1*
X10410Y8629D1*
X10457Y8514D1*
X10465Y8440D1*
X10443Y8318D1*
X12443Y7443D2*
X12380Y7336D1*
X12283Y7258D1*
X12161Y7219D1*
X12100Y7079D1*
X12017Y6986D1*
X11911Y6920D1*
X11790Y6888D1*
X11666Y6892D1*
X11548Y6931D1*
X11446Y7002D1*
X11368Y7100D1*
X11322Y7215D1*
X11311Y7339D1*
X11336Y7461D1*
X11395Y7571D1*
X11482Y7659D1*
X11592Y7719D1*
X11714Y7744D1*
X11811Y7736D1*
X11868Y7813D1*
X11970Y7884D1*
X12091Y7914D1*
X12214Y7901D1*
X12326Y7845D1*
X12410Y7754D1*
X12457Y7639D1*
X12465Y7565D1*
X12443Y7443D1*
X19257Y6006D2*
X19194Y5899D1*
X19097Y5821D1*
X18979Y5781D1*
X18855Y5786D1*
X18740Y5834D1*
X18649Y5918D1*
X18593Y6030D1*
X18580Y6153D1*
X18611Y6274D1*
X18682Y6376D1*
X18784Y6447D1*
X18905Y6477D1*
X19029Y6464D1*
X19140Y6408D1*
X19224Y6316D1*
X19271Y6201D1*
X19279Y6128D1*
X19257Y6006D1*
X17990Y6335D2*
X17927Y6228D1*
X17830Y6150D1*
X17712Y6111D1*
X17588Y6116D1*
X17473Y6163D1*
X17382Y6248D1*
X17326Y6359D1*
X17313Y6483D1*
X17344Y6604D1*
X17415Y6706D1*
X17517Y6776D1*
X17638Y6807D1*
X17762Y6793D1*
X17873Y6737D1*
X17923Y6683D1*
X17891Y6793D1*
X17894Y6918D1*
X17933Y7036D1*
X18006Y7137D1*
X18105Y7212D1*
X18223Y7254D1*
X18347Y7260D1*
X18467Y7228D1*
X18573Y7162D1*
X18654Y7068D1*
X18704Y6953D1*
X18718Y6847D1*
X18699Y6724D1*
X18645Y6612D1*
X18560Y6521D1*
X18451Y6459D1*
X18330Y6433D1*
X18206Y6444D1*
X18090Y6490D1*
X17992Y6573D1*
X18012Y6458D1*
X17990Y6335D1*
X15519Y7571D2*
X15456Y7464D1*
X15359Y7386D1*
X15241Y7347D1*
X15117Y7351D1*
X15002Y7399D1*
X14911Y7484D1*
X14855Y7595D1*
X14842Y7719D1*
X14873Y7839D1*
X14944Y7941D1*
X15047Y8012D1*
X15167Y8042D1*
X15291Y8029D1*
X15402Y7973D1*
X15486Y7882D1*
X15534Y7767D1*
X15541Y7693D1*
X15519Y7571D1*
X23316Y7409D2*
X23252Y7302D1*
X23155Y7224D1*
X23037Y7185D1*
X22913Y7189D1*
X22798Y7237D1*
X22707Y7322D1*
X22652Y7433D1*
X22639Y7557D1*
X22670Y7677D1*
X22741Y7779D1*
X22843Y7850D1*
X22963Y7880D1*
X23087Y7867D1*
X23198Y7811D1*
X23283Y7720D1*
X23330Y7605D1*
X23338Y7531D1*
X23316Y7409D1*
X23252Y7302D1*
X23155Y7224D1*
X23037Y7185D1*
X22913Y7189D1*
X22798Y7237D1*
X22707Y7322D1*
X22652Y7433D1*
X22639Y7557D1*
X22670Y7677D1*
X22741Y7779D1*
X22843Y7850D1*
X22963Y7880D1*
X23087Y7867D1*
X23198Y7811D1*
X23283Y7720D1*
X23330Y7605D1*
X23338Y7531D1*
X23316Y7409D1*
X18568Y7818D2*
X18505Y7711D1*
X18408Y7633D1*
X18290Y7594D1*
X18166Y7598D1*
X18051Y7646D1*
X17960Y7731D1*
X17904Y7842D1*
X17891Y7966D1*
X17922Y8086D1*
X17993Y8188D1*
X18095Y8259D1*
X18212Y8288D1*
X18205Y8404D1*
X18236Y8524D1*
X18307Y8626D1*
X18409Y8697D1*
X18530Y8727D1*
X18653Y8714D1*
X18765Y8658D1*
X18849Y8567D1*
X18896Y8452D1*
X18904Y8378D1*
X18882Y8256D1*
X18819Y8149D1*
X18722Y8071D1*
X18604Y8032D1*
X18577Y8033D1*
X18590Y7940D1*
X18568Y7818D1*
X10568Y7193D2*
X10505Y7086D1*
X10408Y7008D1*
X10290Y6969D1*
X10166Y6973D1*
X10051Y7021D1*
X9960Y7106D1*
X9904Y7217D1*
X9891Y7341D1*
X9922Y7461D1*
X9993Y7563D1*
X10095Y7634D1*
X10216Y7664D1*
X10339Y7651D1*
X10451Y7595D1*
X10535Y7504D1*
X10582Y7389D1*
X10590Y7315D1*
X10568Y7193D1*
X11943Y6193D2*
X11880Y6086D1*
X11783Y6008D1*
X11665Y5969D1*
X11541Y5973D1*
X11426Y6021D1*
X11335Y6106D1*
X11279Y6217D1*
X11266Y6341D1*
X11297Y6461D1*
X11368Y6563D1*
X11470Y6634D1*
X11591Y6664D1*
X11714Y6651D1*
X11826Y6595D1*
X11910Y6504D1*
X11957Y6389D1*
X11965Y6315D1*
X11943Y6193D1*
X8527Y7192D2*
X8475Y7079D1*
X8392Y6986D1*
X8286Y6920D1*
X8165Y6888D1*
X8041Y6892D1*
X7923Y6931D1*
X7821Y7002D1*
X7743Y7100D1*
X7697Y7215D1*
X7686Y7339D1*
X7711Y7461D1*
X7770Y7571D1*
X7857Y7659D1*
X7967Y7719D1*
X8089Y7744D1*
X8213Y7734D1*
X8329Y7688D1*
X8427Y7611D1*
X8499Y7510D1*
X8538Y7392D1*
X8545Y7315D1*
X8527Y7192D1*
X16817Y8201D2*
X16765Y8088D1*
X16682Y7995D1*
X16576Y7929D1*
X16456Y7897D1*
X16331Y7901D1*
X16213Y7940D1*
X16111Y8011D1*
X16033Y8108D1*
X15987Y8224D1*
X15976Y8348D1*
X16001Y8470D1*
X16060Y8580D1*
X16148Y8668D1*
X16257Y8728D1*
X16379Y8753D1*
X16503Y8743D1*
X16619Y8697D1*
X16717Y8620D1*
X16789Y8519D1*
X16828Y8400D1*
X16835Y8324D1*
X16817Y8201D1*
X17802Y7521D2*
X17749Y7409D1*
X17666Y7315D1*
X17560Y7250D1*
X17440Y7218D1*
X17316Y7221D1*
X17197Y7260D1*
X17095Y7331D1*
X17018Y7429D1*
X16972Y7545D1*
X16960Y7669D1*
X16985Y7791D1*
X17044Y7901D1*
X17132Y7989D1*
X17242Y8048D1*
X17363Y8074D1*
X17488Y8063D1*
X17604Y8018D1*
X17702Y7941D1*
X17773Y7839D1*
X17813Y7721D1*
X17820Y7645D1*
X17802Y7521D1*
X21472Y5941D2*
X21426Y5826D1*
X21353Y5725D1*
X21256Y5646D1*
X21143Y5593D1*
X21020Y5571D1*
X20896Y5580D1*
X20778Y5619D1*
X20673Y5687D1*
X20589Y5779D1*
X20530Y5889D1*
X20501Y6010D1*
X20503Y6135D1*
X20536Y6255D1*
X20598Y6363D1*
X20685Y6453D1*
X20791Y6517D1*
X20911Y6553D1*
X21035Y6558D1*
X21157Y6532D1*
X21269Y6476D1*
X21363Y6394D1*
X21433Y6292D1*
X21476Y6174D1*
X21488Y6065D1*
X21472Y5941D1*
X5194Y4936D2*
D18*
X5590Y4540D1*
X5986Y4936D2*
X5590Y4540D1*
D29*
X4590Y10540D3*
X5590D3*
X6590D3*
X7590D3*
X8590D3*
X9590D3*
X10590D3*
X11590D3*
X12590D3*
X13590D3*
X14590D3*
X15590D3*
X16590D3*
X17590D3*
X18590D3*
X19590D3*
X20590D3*
X21590D3*
X22590D3*
X23590D3*
Y4540D3*
X22590D3*
X21590D3*
X20590D3*
X19590D3*
X18590D3*
X17590D3*
X16590D3*
X15590D3*
X14590D3*
X13590D3*
X12590D3*
X11590D3*
X10590D3*
X9590D3*
X8590D3*
X7590D3*
X6590D3*
X5590D3*
X4590D3*
M02*
