G04 DipTrace Beta 2.3.5.2*
%INInner_Layer_2-GMaple-mini.GL2*%
%MOIN*%
%ADD14C,0.008*%
%ADD16C,0.032*%
%ADD17C,0.025*%
%ADD18C,0.013*%
%ADD29C,0.0591*%
%ADD38C,0.027*%
%ADD40C,0.04*%
%FSLAX44Y44*%
G04*
G70*
G90*
G75*
G01*
%LNInner2_Plane*%
%LPD*%
X20429Y7566D2*
D14*
X20492D1*
X12179Y9316D2*
X12054Y9440D1*
X11740Y7315D2*
Y7440D1*
X8115Y7315D2*
X7990D1*
X17390Y7645D2*
X17408Y7663D1*
X20993Y6065D2*
X20928D1*
X15023Y5225D2*
X14991Y5128D1*
X23590Y10540D2*
D16*
Y9333D1*
X21104Y6847D1*
X18303D1*
D38*
X7490Y6565D3*
Y8065D3*
X13615Y8565D3*
D40*
X21224Y8960D3*
X20429Y7566D3*
D38*
X12179Y9316D3*
X16830Y6873D3*
X10115Y8440D3*
X12115Y7565D3*
X14085Y5608D3*
X9412Y5958D3*
D3*
X8536Y8753D3*
X5865Y9065D3*
X9240Y7815D3*
X10790Y7890D3*
X11907Y6610D3*
X15528Y7725D3*
X14089Y7536D3*
X17647Y8480D3*
X17293Y6868D3*
D40*
X19634Y6351D3*
D3*
X22180Y6753D3*
X20249Y8420D3*
X5851Y6049D3*
D38*
X11145Y9144D3*
D40*
X5851Y6049D3*
D38*
X5995Y7931D3*
X18929Y6128D3*
X17662Y6458D3*
X15191Y7693D3*
X22988Y7531D3*
D3*
D40*
X7365Y8565D3*
D38*
X18240Y7940D3*
X5989Y7191D3*
X10240Y7315D3*
X12990Y7940D3*
X11615Y6315D3*
X12990Y7440D3*
X11740Y7315D3*
X8115D3*
X16405Y8324D3*
X17390Y7645D3*
D40*
X20993Y6065D3*
D38*
X15023Y5225D3*
D40*
X18303Y6847D3*
D38*
X18554Y8378D3*
X4265Y9945D2*
D17*
X5967D1*
X10177D2*
X19034D1*
X4265Y9697D2*
X19284D1*
X4265Y9448D2*
X10944D1*
X11345D2*
X19530D1*
X4265Y9199D2*
X5518D1*
X6212D2*
X10776D1*
X11513D2*
X19780D1*
X18685Y8951D2*
X20030D1*
X18931Y8702D2*
X19920D1*
X19181Y8453D2*
X19811D1*
X19431Y8205D2*
X19869D1*
X20630D2*
X20717D1*
X19677Y7956D2*
X20717D1*
X19927Y7707D2*
X20717D1*
X20177Y7459D2*
X20717D1*
X5090Y10288D2*
X5030Y10193D1*
X4942Y10104D1*
X4837Y10037D1*
X4719Y9995D1*
X4595Y9980D1*
X4471Y9993D1*
X4353Y10033D1*
X4247Y10098D1*
X4240Y10103D1*
Y9190D1*
X5541D1*
X5618Y9313D1*
X5720Y9384D1*
X5841Y9414D1*
X5964Y9401D1*
X6076Y9345D1*
X6160Y9254D1*
X6185Y9193D1*
X7740Y9190D1*
X10799D1*
X10826Y9290D1*
X10897Y9392D1*
X11000Y9463D1*
X11120Y9494D1*
X11244Y9480D1*
X11355Y9424D1*
X11439Y9333D1*
X11487Y9218D1*
X11490Y9188D1*
X14365Y9191D1*
X18370Y9189D1*
X18455Y9154D1*
X20233Y7376D1*
X20742Y7378D1*
Y8263D1*
X20660Y8346D1*
X20591Y8185D1*
X20506Y8094D1*
X20398Y8032D1*
X20276Y8006D1*
X20152Y8016D1*
X20037Y8063D1*
X19940Y8143D1*
X19872Y8247D1*
X19838Y8366D1*
X19840Y8491D1*
X19880Y8609D1*
X19952Y8710D1*
X20052Y8785D1*
X20181Y8828D1*
X19363Y9640D1*
X19026Y9980D1*
X18990Y10065D1*
Y10147D1*
X18942Y10104D1*
X18837Y10037D1*
X18719Y9995D1*
X18595Y9980D1*
X18471Y9993D1*
X18353Y10033D1*
X18247Y10098D1*
X18157Y10185D1*
X18091Y10286D1*
X18030Y10193D1*
X17942Y10104D1*
X17837Y10037D1*
X17719Y9995D1*
X17595Y9980D1*
X17471Y9993D1*
X17353Y10033D1*
X17247Y10098D1*
X17157Y10185D1*
X17091Y10286D1*
X17030Y10193D1*
X16942Y10104D1*
X16837Y10037D1*
X16719Y9995D1*
X16595Y9980D1*
X16471Y9993D1*
X16353Y10033D1*
X16247Y10098D1*
X16157Y10185D1*
X16091Y10286D1*
X16030Y10193D1*
X15942Y10104D1*
X15837Y10037D1*
X15719Y9995D1*
X15595Y9980D1*
X15471Y9993D1*
X15353Y10033D1*
X15247Y10098D1*
X15157Y10185D1*
X15091Y10286D1*
X15030Y10193D1*
X14942Y10104D1*
X14837Y10037D1*
X14719Y9995D1*
X14595Y9980D1*
X14471Y9993D1*
X14353Y10033D1*
X14247Y10098D1*
X14157Y10185D1*
X14091Y10286D1*
X14030Y10193D1*
X13942Y10104D1*
X13837Y10037D1*
X13719Y9995D1*
X13595Y9980D1*
X13471Y9993D1*
X13353Y10033D1*
X13247Y10098D1*
X13157Y10185D1*
X13091Y10286D1*
X13030Y10193D1*
X12942Y10104D1*
X12837Y10037D1*
X12719Y9995D1*
X12595Y9980D1*
X12471Y9993D1*
X12353Y10033D1*
X12247Y10098D1*
X12157Y10185D1*
X12091Y10286D1*
X12030Y10193D1*
X11942Y10104D1*
X11837Y10037D1*
X11719Y9995D1*
X11595Y9980D1*
X11471Y9993D1*
X11353Y10033D1*
X11247Y10098D1*
X11157Y10185D1*
X11091Y10286D1*
X11030Y10193D1*
X10942Y10104D1*
X10837Y10037D1*
X10719Y9995D1*
X10595Y9980D1*
X10471Y9993D1*
X10353Y10033D1*
X10238Y10106D1*
X10240Y10065D1*
X10179Y9960D1*
X10115Y9940D1*
X6115D1*
X6010Y10001D1*
X5990Y10065D1*
Y10147D1*
X5942Y10104D1*
X5837Y10037D1*
X5719Y9995D1*
X5595Y9980D1*
X5471Y9993D1*
X5353Y10033D1*
X5247Y10098D1*
X5157Y10185D1*
X5091Y10286D1*
X4590Y10540D2*
D18*
X4986Y10144D1*
X4590Y10540D2*
X4194Y10144D1*
X15255Y8317D2*
D17*
X17162D1*
X15009Y8068D2*
X15432D1*
X15623D2*
X17412D1*
X14759Y7820D2*
X14842D1*
X15888D2*
X17659D1*
X7197Y7571D2*
X8963D1*
X9517D2*
X9975D1*
X10505D2*
X10623D1*
X10959D2*
X11741D1*
X12490D2*
X12639D1*
X13341D2*
X13717D1*
X14462D2*
X14838D1*
X15869D2*
X17842D1*
X6951Y7322D2*
X9866D1*
X10615D2*
X11838D1*
X12392D2*
X12635D1*
X13345D2*
X13787D1*
X14392D2*
X17842D1*
X6701Y7074D2*
X9963D1*
X10517D2*
X16518D1*
X17599D2*
X17791D1*
X6451Y6825D2*
X7229D1*
X7751D2*
X11608D1*
X12209D2*
X16459D1*
X17666D2*
X17745D1*
X6205Y6576D2*
X7116D1*
X7865D2*
X11358D1*
X12279D2*
X16619D1*
X6185Y6327D2*
X7209D1*
X7771D2*
X11241D1*
X12138D2*
X17311D1*
X18013D2*
X18147D1*
X6291Y6079D2*
X9061D1*
X9767D2*
X11330D1*
X11900D2*
X18557D1*
X19970D2*
X21340D1*
X6228Y5830D2*
X9061D1*
X9763D2*
X13791D1*
X14380D2*
X18721D1*
X19138D2*
X21340D1*
X5209Y5581D2*
X13713D1*
X14459D2*
X21340D1*
X4959Y5333D2*
X13842D1*
X14326D2*
X21340D1*
X4748Y5084D2*
X5432D1*
X5748D2*
X6432D1*
X6748D2*
X7432D1*
X7748D2*
X8432D1*
X8748D2*
X9432D1*
X9748D2*
X10432D1*
X10748D2*
X11432D1*
X11748D2*
X12432D1*
X12748D2*
X13432D1*
X13748D2*
X14432D1*
X14748D2*
X15432D1*
X15748D2*
X16432D1*
X16748D2*
X17432D1*
X17748D2*
X18432D1*
X18748D2*
X19432D1*
X19748D2*
X20432D1*
X20748D2*
X21340D1*
X21090Y4789D2*
X21145Y4880D1*
X21231Y4970D1*
X21368Y5051D1*
X21365Y6065D1*
Y6315D1*
X20049D1*
X20030Y6228D1*
X19976Y6116D1*
X19891Y6025D1*
X19783Y5964D1*
X19661Y5937D1*
X19537Y5948D1*
X19422Y5995D1*
X19325Y6074D1*
X19281Y6142D1*
X19257Y6006D1*
X19194Y5899D1*
X19097Y5821D1*
X18979Y5781D1*
X18855Y5786D1*
X18740Y5834D1*
X18649Y5918D1*
X18593Y6030D1*
X18580Y6153D1*
X18611Y6274D1*
X18640Y6315D1*
X18268Y6313D1*
X18145Y6336D1*
X18010Y6402D1*
X17990Y6335D1*
X17927Y6228D1*
X17830Y6150D1*
X17712Y6111D1*
X17588Y6116D1*
X17473Y6163D1*
X17382Y6248D1*
X17326Y6359D1*
X17313Y6483D1*
X17322Y6517D1*
X17218Y6526D1*
X17103Y6574D1*
X17060Y6614D1*
X16998Y6566D1*
X16880Y6526D1*
X16756Y6531D1*
X16641Y6579D1*
X16550Y6663D1*
X16494Y6775D1*
X16481Y6898D1*
X16512Y7019D1*
X16583Y7121D1*
X16685Y7191D1*
X16806Y7222D1*
X16929Y7208D1*
X17041Y7153D1*
X17059Y7133D1*
X17148Y7187D1*
X17268Y7217D1*
X17392Y7204D1*
X17503Y7148D1*
X17587Y7057D1*
X17635Y6942D1*
X17643Y6868D1*
X17631Y6803D1*
X17762Y6793D1*
X17771Y6791D1*
X17772Y6916D1*
X17803Y7037D1*
X17868Y7156D1*
X17867Y7638D1*
X16938Y8565D1*
X15481Y8566D1*
X14639Y7726D1*
X14554Y7691D1*
X14401D1*
X14431Y7609D1*
X14439Y7536D1*
X14417Y7413D1*
X14354Y7306D1*
X14257Y7228D1*
X14139Y7189D1*
X14015Y7194D1*
X13900Y7241D1*
X13809Y7326D1*
X13753Y7437D1*
X13740Y7561D1*
X13778Y7691D1*
X13237Y7690D1*
X13285Y7629D1*
X13332Y7514D1*
X13340Y7440D1*
X13318Y7318D1*
X13255Y7211D1*
X13158Y7133D1*
X13040Y7094D1*
X12916Y7098D1*
X12801Y7146D1*
X12710Y7231D1*
X12654Y7342D1*
X12641Y7466D1*
X12672Y7586D1*
X12746Y7690D1*
X12440D1*
X12457Y7639D1*
X12465Y7565D1*
X12443Y7443D1*
X12380Y7336D1*
X12283Y7258D1*
X12165Y7219D1*
X12041Y7223D1*
X11926Y7271D1*
X11835Y7356D1*
X11779Y7467D1*
X11766Y7591D1*
X11792Y7692D1*
X11081Y7690D1*
X10958Y7583D1*
X10840Y7544D1*
X10716Y7548D1*
X10601Y7596D1*
X10505Y7691D1*
X9565Y7690D1*
X9505Y7586D1*
X9408Y7508D1*
X9290Y7469D1*
X9166Y7473D1*
X9051Y7521D1*
X8960Y7606D1*
X8916Y7693D1*
X7290Y7690D1*
X6121Y6520D1*
X6087Y6454D1*
X6122Y6363D1*
X6203Y6269D1*
X6252Y6155D1*
X6266Y6049D1*
X6248Y5925D1*
X6193Y5813D1*
X6108Y5722D1*
X6000Y5661D1*
X5878Y5634D1*
X5754Y5645D1*
X5639Y5692D1*
X5543Y5771D1*
X5472Y5871D1*
X4699Y5090D1*
X4818Y5052D1*
X4926Y4989D1*
X5017Y4903D1*
X5086Y4800D1*
X5090Y4792D1*
X5145Y4880D1*
X5231Y4970D1*
X5335Y5039D1*
X5451Y5083D1*
X5575Y5100D1*
X5699Y5090D1*
X5818Y5052D1*
X5926Y4989D1*
X6017Y4903D1*
X6091Y4789D1*
X6145Y4880D1*
X6231Y4970D1*
X6335Y5039D1*
X6451Y5083D1*
X6575Y5100D1*
X6699Y5090D1*
X6818Y5052D1*
X6926Y4989D1*
X7017Y4903D1*
X7091Y4789D1*
X7145Y4880D1*
X7231Y4970D1*
X7335Y5039D1*
X7451Y5083D1*
X7575Y5100D1*
X7699Y5090D1*
X7818Y5052D1*
X7926Y4989D1*
X8017Y4903D1*
X8091Y4789D1*
X8145Y4880D1*
X8231Y4970D1*
X8335Y5039D1*
X8451Y5083D1*
X8575Y5100D1*
X8699Y5090D1*
X8818Y5052D1*
X8926Y4989D1*
X9017Y4903D1*
X9091Y4789D1*
X9145Y4880D1*
X9231Y4970D1*
X9335Y5039D1*
X9451Y5083D1*
X9575Y5100D1*
X9699Y5090D1*
X9818Y5052D1*
X9926Y4989D1*
X10017Y4903D1*
X10091Y4789D1*
X10145Y4880D1*
X10231Y4970D1*
X10335Y5039D1*
X10451Y5083D1*
X10575Y5100D1*
X10699Y5090D1*
X10818Y5052D1*
X10926Y4989D1*
X11017Y4903D1*
X11091Y4789D1*
X11145Y4880D1*
X11231Y4970D1*
X11335Y5039D1*
X11451Y5083D1*
X11575Y5100D1*
X11699Y5090D1*
X11818Y5052D1*
X11926Y4989D1*
X12017Y4903D1*
X12091Y4789D1*
X12145Y4880D1*
X12231Y4970D1*
X12335Y5039D1*
X12451Y5083D1*
X12575Y5100D1*
X12699Y5090D1*
X12818Y5052D1*
X12926Y4989D1*
X13017Y4903D1*
X13091Y4789D1*
X13145Y4880D1*
X13231Y4970D1*
X13335Y5039D1*
X13451Y5083D1*
X13575Y5100D1*
X13699Y5090D1*
X13818Y5052D1*
X13926Y4989D1*
X14017Y4903D1*
X14091Y4789D1*
X14145Y4880D1*
X14231Y4970D1*
X14335Y5039D1*
X14451Y5083D1*
X14575Y5100D1*
X14699Y5090D1*
X14818Y5052D1*
X14926Y4989D1*
X15017Y4903D1*
X15091Y4789D1*
X15145Y4880D1*
X15231Y4970D1*
X15335Y5039D1*
X15451Y5083D1*
X15575Y5100D1*
X15699Y5090D1*
X15818Y5052D1*
X15926Y4989D1*
X16017Y4903D1*
X16091Y4789D1*
X16145Y4880D1*
X16231Y4970D1*
X16335Y5039D1*
X16451Y5083D1*
X16575Y5100D1*
X16699Y5090D1*
X16818Y5052D1*
X16926Y4989D1*
X17017Y4903D1*
X17091Y4789D1*
X17145Y4880D1*
X17231Y4970D1*
X17335Y5039D1*
X17451Y5083D1*
X17575Y5100D1*
X17699Y5090D1*
X17818Y5052D1*
X17926Y4989D1*
X18017Y4903D1*
X18091Y4789D1*
X18145Y4880D1*
X18231Y4970D1*
X18335Y5039D1*
X18451Y5083D1*
X18575Y5100D1*
X18699Y5090D1*
X18818Y5052D1*
X18926Y4989D1*
X19017Y4903D1*
X19091Y4789D1*
X19145Y4880D1*
X19231Y4970D1*
X19335Y5039D1*
X19451Y5083D1*
X19575Y5100D1*
X19699Y5090D1*
X19818Y5052D1*
X19926Y4989D1*
X20017Y4903D1*
X20091Y4789D1*
X20145Y4880D1*
X20231Y4970D1*
X20335Y5039D1*
X20451Y5083D1*
X20575Y5100D1*
X20699Y5090D1*
X20818Y5052D1*
X20926Y4989D1*
X21017Y4903D1*
X21091Y4789D1*
X7818Y6443D2*
X7755Y6336D1*
X7658Y6258D1*
X7540Y6219D1*
X7416Y6223D1*
X7301Y6271D1*
X7210Y6356D1*
X7154Y6467D1*
X7141Y6591D1*
X7172Y6711D1*
X7243Y6813D1*
X7345Y6884D1*
X7466Y6914D1*
X7589Y6901D1*
X7701Y6845D1*
X7785Y6754D1*
X7832Y6639D1*
X7840Y6565D1*
X7818Y6443D1*
X14413Y5485D2*
X14350Y5378D1*
X14253Y5300D1*
X14135Y5261D1*
X14010Y5266D1*
X13896Y5313D1*
X13805Y5398D1*
X13749Y5510D1*
X13736Y5633D1*
X13767Y5754D1*
X13838Y5856D1*
X13940Y5926D1*
X14061Y5957D1*
X14184Y5943D1*
X14295Y5887D1*
X14380Y5796D1*
X14427Y5681D1*
X14435Y5608D1*
X14413Y5485D1*
X9740Y5835D2*
X9677Y5728D1*
X9580Y5650D1*
X9462Y5611D1*
X9338Y5616D1*
X9223Y5663D1*
X9132Y5748D1*
X9076Y5859D1*
X9063Y5983D1*
X9094Y6103D1*
X9165Y6205D1*
X9268Y6276D1*
X9388Y6307D1*
X9512Y6293D1*
X9623Y6237D1*
X9707Y6146D1*
X9755Y6031D1*
X9762Y5958D1*
X9740Y5835D1*
X9677Y5728D1*
X9580Y5650D1*
X9462Y5611D1*
X9338Y5616D1*
X9223Y5663D1*
X9132Y5748D1*
X9076Y5859D1*
X9063Y5983D1*
X9094Y6103D1*
X9165Y6205D1*
X9268Y6276D1*
X9388Y6307D1*
X9512Y6293D1*
X9623Y6237D1*
X9707Y6146D1*
X9755Y6031D1*
X9762Y5958D1*
X9740Y5835D1*
X12235Y6488D2*
X12172Y6381D1*
X12075Y6303D1*
X11961Y6265D1*
X11943Y6193D1*
X11880Y6086D1*
X11783Y6008D1*
X11665Y5969D1*
X11541Y5973D1*
X11426Y6021D1*
X11335Y6106D1*
X11279Y6217D1*
X11266Y6341D1*
X11297Y6461D1*
X11368Y6563D1*
X11470Y6634D1*
X11557Y6656D1*
X11589Y6756D1*
X11660Y6858D1*
X11762Y6929D1*
X11883Y6959D1*
X12007Y6946D1*
X12118Y6890D1*
X12202Y6799D1*
X12250Y6684D1*
X12257Y6610D1*
X12235Y6488D1*
X15856Y7603D2*
X15793Y7496D1*
X15696Y7418D1*
X15578Y7379D1*
X15454Y7384D1*
X15393Y7409D1*
X15359Y7386D1*
X15241Y7347D1*
X15117Y7351D1*
X15002Y7399D1*
X14911Y7484D1*
X14855Y7595D1*
X14842Y7719D1*
X14873Y7839D1*
X14944Y7941D1*
X15047Y8012D1*
X15167Y8042D1*
X15291Y8029D1*
X15329Y8010D1*
X15383Y8044D1*
X15504Y8075D1*
X15627Y8061D1*
X15739Y8005D1*
X15823Y7914D1*
X15870Y7799D1*
X15878Y7725D1*
X15856Y7603D1*
X20044Y6317D2*
X20030Y6228D1*
X19976Y6116D1*
X19891Y6025D1*
X19783Y5964D1*
X19661Y5937D1*
X19537Y5948D1*
X19422Y5995D1*
X19325Y6074D1*
X19281Y6142D1*
X6052Y6407D2*
X6122Y6363D1*
X6203Y6269D1*
X6252Y6155D1*
X6266Y6049D1*
X6248Y5925D1*
X6193Y5813D1*
X6108Y5722D1*
X6000Y5661D1*
X5878Y5634D1*
X5754Y5645D1*
X5639Y5692D1*
X5543Y5771D1*
X5476Y5872D1*
X10568Y7193D2*
X10505Y7086D1*
X10408Y7008D1*
X10290Y6969D1*
X10166Y6973D1*
X10051Y7021D1*
X9960Y7106D1*
X9904Y7217D1*
X9891Y7341D1*
X9922Y7461D1*
X9993Y7563D1*
X10095Y7634D1*
X10216Y7664D1*
X10339Y7651D1*
X10451Y7595D1*
X10535Y7504D1*
X10582Y7389D1*
X10590Y7315D1*
X10568Y7193D1*
X4986Y4936D2*
D18*
X4590Y4540D1*
D29*
Y10540D3*
X5590D3*
X6590D3*
X7590D3*
X8590D3*
X9590D3*
X10590D3*
X11590D3*
X12590D3*
X13590D3*
X14590D3*
X15590D3*
X16590D3*
X17590D3*
X18590D3*
X19590D3*
X20590D3*
X21590D3*
X22590D3*
X23590D3*
Y4540D3*
X22590D3*
X21590D3*
X20590D3*
X19590D3*
X18590D3*
X17590D3*
X16590D3*
X15590D3*
X14590D3*
X13590D3*
X12590D3*
X11590D3*
X10590D3*
X9590D3*
X8590D3*
X7590D3*
X6590D3*
X5590D3*
X4590D3*
M02*
