G04 DipTrace Beta 2.3.5.2*
%INSilk_Top-GMaple-mini.GTO*%
%MOIN*%
%ADD10C,0.0098*%
%ADD12C,0.003*%
%ADD19C,0.005*%
%ADD20C,0.0025*%
%ADD31C,0.0197*%
%ADD72C,0.0046*%
%FSLAX44Y44*%
G04*
G70*
G90*
G75*
G01*
%LNTopSilk*%
%LPD*%
X13972Y7855D2*
D10*
X14208D1*
X13972Y7226D2*
X14208D1*
X14047D2*
Y7855D1*
X13972Y7226D2*
Y7855D1*
D31*
X7390Y8190D3*
X6130Y9096D2*
D10*
X5106D1*
X3964D2*
X3374D1*
Y6025D1*
X3925D1*
X6091D2*
X5106D1*
X7154Y6733D2*
Y6340D1*
Y8820D2*
Y8426D1*
X23305Y7540D2*
X23290Y7443D1*
X23245Y7355D1*
X23175Y7285D1*
X23087Y7241D1*
X22990Y7225D1*
X22893Y7241D1*
X22805Y7285D1*
X22735Y7355D1*
X22691Y7443D1*
X22675Y7540D1*
X22691Y7637D1*
X22735Y7725D1*
X22805Y7795D1*
X22893Y7840D1*
X22990Y7855D1*
X23087Y7840D1*
X23175Y7795D1*
X23245Y7725D1*
X23290Y7637D1*
X23305Y7540D1*
X22400Y6989D2*
X23581D1*
X22398Y8097D2*
X23579D1*
X22163Y7599D2*
Y7481D1*
X23817Y7599D2*
Y7481D1*
X20605Y7540D2*
X20590Y7443D1*
X20545Y7355D1*
X20475Y7285D1*
X20387Y7241D1*
X20290Y7225D1*
X20193Y7241D1*
X20105Y7285D1*
X20035Y7355D1*
X19991Y7443D1*
X19975Y7540D1*
X19991Y7637D1*
X20035Y7725D1*
X20105Y7795D1*
X20193Y7840D1*
X20290Y7855D1*
X20387Y7840D1*
X20475Y7795D1*
X20545Y7725D1*
X20590Y7637D1*
X20605Y7540D1*
X19700Y6989D2*
X20881D1*
X19698Y8097D2*
X20879D1*
X19463Y7599D2*
Y7481D1*
X21117Y7599D2*
Y7481D1*
X21742Y8941D2*
D19*
X21555D1*
X21367Y9128D1*
X22492Y8941D2*
X22742D1*
X22930Y9128D1*
X15804Y5878D2*
X15554D1*
X15366Y5690D1*
X16429Y5878D2*
X16679D1*
X16867Y5690D1*
X21742Y5753D2*
X20304D1*
X20117Y5565D1*
X22430Y5753D2*
X23742D1*
X23930Y5565D1*
X23367Y5628D2*
D20*
X23680D1*
X8491Y6065D2*
D19*
X8803D1*
X8928Y5940D1*
X7741Y6065D2*
X7428D1*
X7303Y5940D1*
X17367Y8691D2*
X18867D1*
X19054Y8878D1*
X16679Y8691D2*
X15429D1*
X15241Y8878D1*
X15534Y9110D2*
D20*
X15784D1*
X13718Y7062D2*
D12*
Y6861D1*
X13785D1*
X13814Y6871D1*
X13833Y6890D1*
X13843Y6909D1*
X13852Y6938D1*
Y6986D1*
X13843Y7015D1*
X13833Y7034D1*
X13814Y7053D1*
X13785Y7062D1*
X13718D1*
X13914Y7024D2*
X13933Y7034D1*
X13962Y7062D1*
Y6861D1*
X14024Y6990D2*
X14196D1*
X14024Y6933D2*
X14196D1*
X14277Y7062D2*
X14382D1*
X14325Y6986D1*
X14353D1*
X14372Y6976D1*
X14382Y6967D1*
X14392Y6938D1*
Y6919D1*
X14382Y6890D1*
X14363Y6871D1*
X14334Y6861D1*
X14305D1*
X14277Y6871D1*
X14267Y6881D1*
X14258Y6900D1*
X14472Y7062D2*
X14578D1*
X14520Y6986D1*
X14549D1*
X14568Y6976D1*
X14578Y6967D1*
X14587Y6938D1*
Y6919D1*
X14578Y6890D1*
X14558Y6871D1*
X14530Y6861D1*
X14501D1*
X14472Y6871D1*
X14463Y6881D1*
X14453Y6900D1*
X5506Y9561D2*
Y9408D1*
X5497Y9380D1*
X5487Y9370D1*
X5468Y9360D1*
X5449D1*
X5430Y9370D1*
X5420Y9380D1*
X5410Y9408D1*
Y9427D1*
X5587Y9561D2*
X5692D1*
X5635Y9485D1*
X5664D1*
X5683Y9475D1*
X5692Y9466D1*
X5702Y9437D1*
Y9418D1*
X5692Y9389D1*
X5673Y9370D1*
X5644Y9360D1*
X5616D1*
X5587Y9370D1*
X5578Y9380D1*
X5568Y9399D1*
X18605Y6801D2*
Y6887D1*
X18595Y6915D1*
X18586Y6925D1*
X18567Y6935D1*
X18548D1*
X18529Y6925D1*
X18519Y6915D1*
X18509Y6887D1*
Y6801D1*
X18710D1*
X18605Y6868D2*
X18710Y6935D1*
Y7092D2*
X18510D1*
X18643Y6996D1*
Y7140D1*
X22502Y8377D2*
X22483Y8396D1*
X22454Y8405D1*
X22416D1*
X22387Y8396D1*
X22368Y8377D1*
Y8358D1*
X22378Y8338D1*
X22387Y8329D1*
X22406Y8319D1*
X22464Y8300D1*
X22483Y8291D1*
X22493Y8281D1*
X22502Y8262D1*
Y8233D1*
X22483Y8214D1*
X22454Y8204D1*
X22416D1*
X22387Y8214D1*
X22368Y8233D1*
X22564Y8367D2*
X22583Y8377D1*
X22612Y8405D1*
Y8204D1*
X22415Y6796D2*
Y6595D1*
X22501D1*
X22530Y6605D1*
X22539Y6614D1*
X22549Y6633D1*
Y6662D1*
X22539Y6681D1*
X22530Y6691D1*
X22501Y6700D1*
X22530Y6710D1*
X22539Y6719D1*
X22549Y6739D1*
Y6758D1*
X22539Y6777D1*
X22530Y6786D1*
X22501Y6796D1*
X22415D1*
Y6700D2*
X22501D1*
X22610Y6796D2*
Y6653D1*
X22620Y6624D1*
X22639Y6605D1*
X22668Y6595D1*
X22687D1*
X22716Y6605D1*
X22735Y6624D1*
X22744Y6653D1*
Y6796D1*
X22873D2*
Y6595D1*
X22806Y6796D2*
X22940D1*
X23002Y6724D2*
X23174D1*
X23002Y6667D2*
X23174D1*
X23255Y6796D2*
X23360D1*
X23303Y6719D1*
X23332D1*
X23351Y6710D1*
X23360Y6700D1*
X23370Y6672D1*
Y6653D1*
X23360Y6624D1*
X23341Y6605D1*
X23312Y6595D1*
X23284D1*
X23255Y6605D1*
X23246Y6614D1*
X23236Y6633D1*
X23441Y6748D2*
Y6758D1*
X23451Y6777D1*
X23460Y6786D1*
X23480Y6796D1*
X23518D1*
X23537Y6786D1*
X23546Y6777D1*
X23556Y6758D1*
Y6739D1*
X23546Y6719D1*
X23527Y6691D1*
X23432Y6595D1*
X23566D1*
X19812Y8406D2*
X19793Y8425D1*
X19764Y8435D1*
X19726D1*
X19697Y8425D1*
X19678Y8406D1*
Y8387D1*
X19688Y8368D1*
X19697Y8358D1*
X19716Y8349D1*
X19774Y8329D1*
X19793Y8320D1*
X19802Y8310D1*
X19812Y8291D1*
Y8262D1*
X19793Y8243D1*
X19764Y8234D1*
X19726D1*
X19697Y8243D1*
X19678Y8262D1*
X19883Y8387D2*
Y8396D1*
X19893Y8415D1*
X19902Y8425D1*
X19922Y8434D1*
X19960D1*
X19979Y8425D1*
X19988Y8415D1*
X19998Y8396D1*
Y8377D1*
X19988Y8358D1*
X19969Y8329D1*
X19874Y8234D1*
X20008D1*
X19841Y6700D2*
X19927D1*
X19956Y6710D1*
X19966Y6719D1*
X19975Y6739D1*
Y6758D1*
X19966Y6777D1*
X19956Y6786D1*
X19927Y6796D1*
X19841D1*
Y6595D1*
X19908Y6700D2*
X19975Y6595D1*
X20161Y6796D2*
X20037D1*
Y6595D1*
X20161D1*
X20037Y6700D2*
X20114D1*
X20357Y6767D2*
X20338Y6786D1*
X20309Y6796D1*
X20271D1*
X20242Y6786D1*
X20223Y6767D1*
Y6748D1*
X20233Y6729D1*
X20242Y6719D1*
X20261Y6710D1*
X20319Y6691D1*
X20338Y6681D1*
X20348Y6672D1*
X20357Y6653D1*
Y6624D1*
X20338Y6605D1*
X20309Y6595D1*
X20271D1*
X20242Y6605D1*
X20223Y6624D1*
X20543Y6796D2*
X20419D1*
Y6595D1*
X20543D1*
X20419Y6700D2*
X20495D1*
X20672Y6796D2*
Y6595D1*
X20605Y6796D2*
X20739D1*
X4174Y5188D2*
D72*
X4260Y4987D1*
X4346Y5188D1*
X4611Y5145D2*
X4582Y5174D1*
X4553Y5188D1*
X4511D1*
X4482Y5174D1*
X4453Y5145D1*
X4439Y5102D1*
Y5073D1*
X4453Y5030D1*
X4482Y5002D1*
X4511Y4987D1*
X4553D1*
X4582Y5002D1*
X4611Y5030D1*
X4876Y5145D2*
X4847Y5174D1*
X4818Y5188D1*
X4776D1*
X4747Y5174D1*
X4718Y5145D1*
X4704Y5102D1*
Y5073D1*
X4718Y5030D1*
X4747Y5002D1*
X4776Y4987D1*
X4818D1*
X4847Y5002D1*
X4876Y5030D1*
X5346Y5174D2*
Y4944D1*
X5332Y4901D1*
X5318Y4887D1*
X5289Y4872D1*
X5246D1*
X5217Y4887D1*
X5346Y5131D2*
X5318Y5159D1*
X5289Y5174D1*
X5246D1*
X5217Y5159D1*
X5188Y5131D1*
X5174Y5087D1*
Y5059D1*
X5188Y5016D1*
X5217Y4987D1*
X5246Y4973D1*
X5289D1*
X5318Y4987D1*
X5346Y5016D1*
X5439Y5188D2*
Y4987D1*
Y5131D2*
X5482Y5174D1*
X5511Y5188D1*
X5553D1*
X5582Y5174D1*
X5597Y5131D1*
Y4987D1*
X5861Y5288D2*
Y4987D1*
Y5145D2*
X5833Y5174D1*
X5804Y5188D1*
X5761D1*
X5732Y5174D1*
X5703Y5145D1*
X5689Y5102D1*
Y5073D1*
X5703Y5030D1*
X5732Y5002D1*
X5761Y4987D1*
X5804D1*
X5833Y5002D1*
X5861Y5030D1*
X6237Y5288D2*
Y4987D1*
Y5145D2*
X6265Y5174D1*
X6294Y5188D1*
X6337D1*
X6366Y5174D1*
X6394Y5145D1*
X6409Y5102D1*
Y5073D1*
X6394Y5030D1*
X6366Y5002D1*
X6337Y4987D1*
X6294D1*
X6265Y5002D1*
X6237Y5030D1*
X6501Y5188D2*
Y5044D1*
X6516Y5002D1*
X6544Y4987D1*
X6588D1*
X6616Y5002D1*
X6659Y5044D1*
Y5188D2*
Y4987D1*
X6795Y5288D2*
Y5044D1*
X6809Y5002D1*
X6838Y4987D1*
X6867D1*
X6752Y5188D2*
X6852D1*
X7424Y5231D2*
X7453Y5245D1*
X7496Y5288D1*
Y4987D1*
X7761Y5288D2*
X7618D1*
X7603Y5159D1*
X7618Y5173D1*
X7661Y5188D1*
X7704D1*
X7747Y5173D1*
X7775Y5145D1*
X7790Y5102D1*
Y5073D1*
X7775Y5030D1*
X7747Y5001D1*
X7704Y4987D1*
X7661D1*
X7618Y5001D1*
X7603Y5016D1*
X7589Y5044D1*
X8424Y5231D2*
X8453Y5245D1*
X8496Y5288D1*
Y4987D1*
X8761Y5245D2*
X8747Y5274D1*
X8704Y5288D1*
X8675D1*
X8632Y5274D1*
X8603Y5231D1*
X8589Y5159D1*
Y5087D1*
X8603Y5030D1*
X8632Y5001D1*
X8675Y4987D1*
X8689D1*
X8732Y5001D1*
X8761Y5030D1*
X8775Y5073D1*
Y5087D1*
X8761Y5131D1*
X8732Y5159D1*
X8689Y5173D1*
X8675D1*
X8632Y5159D1*
X8603Y5131D1*
X8589Y5087D1*
X9424Y5231D2*
X9453Y5245D1*
X9496Y5288D1*
Y4987D1*
X9646D2*
X9790Y5288D1*
X9589D1*
X11425Y5231D2*
X11453Y5245D1*
X11497Y5288D1*
Y4987D1*
X11776Y5188D2*
X11761Y5145D1*
X11733Y5116D1*
X11690Y5102D1*
X11675D1*
X11632Y5116D1*
X11604Y5145D1*
X11589Y5188D1*
Y5202D1*
X11604Y5245D1*
X11632Y5274D1*
X11675Y5288D1*
X11690D1*
X11733Y5274D1*
X11761Y5245D1*
X11776Y5188D1*
Y5116D1*
X11761Y5044D1*
X11733Y5001D1*
X11690Y4987D1*
X11661D1*
X11618Y5001D1*
X11604Y5030D1*
X12439Y5216D2*
Y5231D1*
X12454Y5260D1*
X12468Y5274D1*
X12497Y5288D1*
X12554D1*
X12583Y5274D1*
X12597Y5260D1*
X12611Y5231D1*
Y5202D1*
X12597Y5173D1*
X12568Y5131D1*
X12425Y4987D1*
X12626D1*
X12805Y5288D2*
X12761Y5274D1*
X12733Y5231D1*
X12718Y5159D1*
Y5116D1*
X12733Y5044D1*
X12761Y5001D1*
X12805Y4987D1*
X12833D1*
X12876Y5001D1*
X12905Y5044D1*
X12919Y5116D1*
Y5159D1*
X12905Y5231D1*
X12876Y5274D1*
X12833Y5288D1*
X12805D1*
X12905Y5231D2*
X12733Y5044D1*
X13439Y5216D2*
Y5231D1*
X13454Y5260D1*
X13468Y5274D1*
X13497Y5288D1*
X13554D1*
X13583Y5274D1*
X13597Y5260D1*
X13612Y5231D1*
Y5202D1*
X13597Y5173D1*
X13568Y5131D1*
X13425Y4987D1*
X13626D1*
X13718Y5231D2*
X13747Y5245D1*
X13790Y5288D1*
Y4987D1*
X14377Y5216D2*
Y5231D1*
X14391Y5260D1*
X14406Y5274D1*
X14434Y5288D1*
X14492D1*
X14520Y5274D1*
X14535Y5260D1*
X14549Y5231D1*
Y5202D1*
X14535Y5173D1*
X14506Y5131D1*
X14362Y4987D1*
X14563D1*
X14671Y5216D2*
Y5231D1*
X14685Y5260D1*
X14699Y5274D1*
X14728Y5288D1*
X14785D1*
X14814Y5274D1*
X14828Y5260D1*
X14843Y5231D1*
Y5202D1*
X14828Y5173D1*
X14800Y5131D1*
X14656Y4987D1*
X14857D1*
X10424Y5231D2*
X10453Y5245D1*
X10496Y5288D1*
Y4987D1*
X10661Y5288D2*
X10618Y5274D1*
X10603Y5245D1*
Y5216D1*
X10618Y5188D1*
X10646Y5173D1*
X10704Y5159D1*
X10747Y5145D1*
X10775Y5116D1*
X10790Y5087D1*
Y5044D1*
X10775Y5016D1*
X10761Y5001D1*
X10718Y4987D1*
X10661D1*
X10618Y5001D1*
X10603Y5016D1*
X10589Y5044D1*
Y5087D1*
X10603Y5116D1*
X10632Y5145D1*
X10675Y5159D1*
X10732Y5173D1*
X10761Y5188D1*
X10775Y5216D1*
Y5245D1*
X10761Y5274D1*
X10718Y5288D1*
X10661D1*
X16377Y5216D2*
Y5231D1*
X16391Y5260D1*
X16406Y5274D1*
X16435Y5288D1*
X16492D1*
X16520Y5274D1*
X16535Y5260D1*
X16549Y5231D1*
Y5202D1*
X16535Y5173D1*
X16506Y5131D1*
X16363Y4987D1*
X16564D1*
X16800D2*
Y5288D1*
X16656Y5087D1*
X16871D1*
X17377Y5216D2*
Y5231D1*
X17392Y5260D1*
X17406Y5274D1*
X17435Y5288D1*
X17492D1*
X17521Y5274D1*
X17535Y5260D1*
X17549Y5231D1*
Y5202D1*
X17535Y5173D1*
X17506Y5131D1*
X17363Y4987D1*
X17564D1*
X17828Y5288D2*
X17685D1*
X17671Y5159D1*
X17685Y5173D1*
X17728Y5188D1*
X17771D1*
X17814Y5173D1*
X17843Y5145D1*
X17857Y5102D1*
Y5073D1*
X17843Y5030D1*
X17814Y5001D1*
X17771Y4987D1*
X17728D1*
X17685Y5001D1*
X17671Y5016D1*
X17656Y5044D1*
X18377Y5216D2*
Y5231D1*
X18392Y5260D1*
X18406Y5274D1*
X18435Y5288D1*
X18492D1*
X18521Y5274D1*
X18535Y5260D1*
X18550Y5231D1*
Y5202D1*
X18535Y5173D1*
X18506Y5131D1*
X18363Y4987D1*
X18564D1*
X18829Y5245D2*
X18814Y5274D1*
X18771Y5288D1*
X18743D1*
X18700Y5274D1*
X18671Y5231D1*
X18656Y5159D1*
Y5087D1*
X18671Y5030D1*
X18700Y5001D1*
X18743Y4987D1*
X18757D1*
X18800Y5001D1*
X18829Y5030D1*
X18843Y5073D1*
Y5087D1*
X18829Y5131D1*
X18800Y5159D1*
X18757Y5173D1*
X18743D1*
X18700Y5159D1*
X18671Y5131D1*
X18656Y5087D1*
X19378Y5216D2*
Y5231D1*
X19392Y5260D1*
X19406Y5274D1*
X19435Y5288D1*
X19492D1*
X19521Y5274D1*
X19535Y5260D1*
X19550Y5231D1*
Y5202D1*
X19535Y5173D1*
X19507Y5131D1*
X19363Y4987D1*
X19564D1*
X19714D2*
X19857Y5288D1*
X19657D1*
X20378Y5216D2*
Y5231D1*
X20392Y5260D1*
X20406Y5274D1*
X20435Y5288D1*
X20492D1*
X20521Y5274D1*
X20535Y5260D1*
X20550Y5231D1*
Y5202D1*
X20535Y5173D1*
X20507Y5131D1*
X20363Y4987D1*
X20564D1*
X20728Y5288D2*
X20685Y5274D1*
X20671Y5245D1*
Y5216D1*
X20685Y5188D1*
X20714Y5173D1*
X20771Y5159D1*
X20814Y5145D1*
X20843Y5116D1*
X20857Y5087D1*
Y5044D1*
X20843Y5016D1*
X20829Y5001D1*
X20786Y4987D1*
X20728D1*
X20685Y5001D1*
X20671Y5016D1*
X20657Y5044D1*
Y5087D1*
X20671Y5116D1*
X20700Y5145D1*
X20743Y5159D1*
X20800Y5173D1*
X20829Y5188D1*
X20843Y5216D1*
Y5245D1*
X20829Y5274D1*
X20786Y5288D1*
X20728D1*
X21378Y5216D2*
Y5231D1*
X21392Y5260D1*
X21406Y5274D1*
X21435Y5288D1*
X21492D1*
X21521Y5274D1*
X21535Y5260D1*
X21550Y5231D1*
Y5202D1*
X21535Y5173D1*
X21507Y5131D1*
X21363Y4987D1*
X21564D1*
X21843Y5188D2*
X21829Y5145D1*
X21800Y5116D1*
X21757Y5102D1*
X21743D1*
X21700Y5116D1*
X21671Y5145D1*
X21657Y5188D1*
Y5202D1*
X21671Y5245D1*
X21700Y5274D1*
X21743Y5288D1*
X21757D1*
X21800Y5274D1*
X21829Y5245D1*
X21843Y5188D1*
Y5116D1*
X21829Y5044D1*
X21800Y5001D1*
X21757Y4987D1*
X21729D1*
X21686Y5001D1*
X21671Y5030D1*
X22392Y5288D2*
X22550D1*
X22464Y5173D1*
X22507D1*
X22535Y5159D1*
X22550Y5145D1*
X22564Y5102D1*
Y5073D1*
X22550Y5030D1*
X22521Y5001D1*
X22478Y4987D1*
X22435D1*
X22392Y5001D1*
X22378Y5016D1*
X22363Y5044D1*
X22743Y5288D2*
X22700Y5274D1*
X22671Y5231D1*
X22657Y5159D1*
Y5116D1*
X22671Y5044D1*
X22700Y5001D1*
X22743Y4987D1*
X22772D1*
X22815Y5001D1*
X22843Y5044D1*
X22858Y5116D1*
Y5159D1*
X22843Y5231D1*
X22815Y5274D1*
X22772Y5288D1*
X22743D1*
X22843Y5231D2*
X22671Y5044D1*
X23392Y5288D2*
X23550D1*
X23464Y5173D1*
X23507D1*
X23535Y5159D1*
X23550Y5145D1*
X23564Y5102D1*
Y5073D1*
X23550Y5030D1*
X23521Y5001D1*
X23478Y4987D1*
X23435D1*
X23392Y5001D1*
X23378Y5016D1*
X23363Y5044D1*
X23657Y5231D2*
X23686Y5245D1*
X23729Y5288D1*
Y4987D1*
X23328Y10048D2*
X23415Y9847D1*
X23500Y10048D1*
X23593Y10149D2*
X23607Y10134D1*
X23622Y10149D1*
X23607Y10163D1*
X23593Y10149D1*
X23607Y10048D2*
Y9847D1*
X23715Y10048D2*
Y9847D1*
Y9991D2*
X23758Y10034D1*
X23787Y10048D1*
X23829D1*
X23858Y10034D1*
X23872Y9991D1*
Y9847D1*
X15377Y5216D2*
Y5231D1*
X15391Y5260D1*
X15406Y5274D1*
X15434Y5288D1*
X15492D1*
X15520Y5274D1*
X15535Y5260D1*
X15549Y5231D1*
Y5202D1*
X15535Y5173D1*
X15506Y5131D1*
X15363Y4987D1*
X15563D1*
X15685Y5288D2*
X15842D1*
X15757Y5173D1*
X15800D1*
X15828Y5159D1*
X15842Y5145D1*
X15857Y5102D1*
Y5073D1*
X15842Y5030D1*
X15814Y5001D1*
X15771Y4987D1*
X15728D1*
X15685Y5001D1*
X15671Y5016D1*
X15656Y5044D1*
X22574Y10101D2*
X22531Y10087D1*
X22503Y10044D1*
X22488Y9972D1*
Y9929D1*
X22503Y9857D1*
X22531Y9814D1*
X22574Y9800D1*
X22603D1*
X22646Y9814D1*
X22675Y9857D1*
X22689Y9929D1*
Y9972D1*
X22675Y10044D1*
X22646Y10087D1*
X22603Y10101D1*
X22574D1*
X22675Y10044D2*
X22503Y9857D1*
X21551Y10044D2*
X21580Y10058D1*
X21623Y10101D1*
Y9800D1*
X20503Y10030D2*
Y10044D1*
X20517Y10073D1*
X20531Y10087D1*
X20560Y10101D1*
X20617D1*
X20646Y10087D1*
X20660Y10073D1*
X20675Y10044D1*
Y10015D1*
X20660Y9986D1*
X20632Y9944D1*
X20488Y9800D1*
X20689D1*
X19517Y10101D2*
X19674D1*
X19588Y9986D1*
X19632D1*
X19660Y9972D1*
X19674Y9958D1*
X19689Y9915D1*
Y9886D1*
X19674Y9843D1*
X19646Y9814D1*
X19603Y9800D1*
X19560D1*
X19517Y9814D1*
X19503Y9829D1*
X19488Y9857D1*
X18631Y9800D2*
Y10101D1*
X18488Y9901D1*
X18703D1*
X17660Y10101D2*
X17517D1*
X17502Y9972D1*
X17517Y9986D1*
X17560Y10001D1*
X17602D1*
X17646Y9986D1*
X17674Y9958D1*
X17689Y9915D1*
Y9886D1*
X17674Y9843D1*
X17646Y9814D1*
X17602Y9800D1*
X17560D1*
X17517Y9814D1*
X17502Y9829D1*
X17488Y9857D1*
X16660Y10058D2*
X16645Y10087D1*
X16602Y10101D1*
X16574D1*
X16531Y10087D1*
X16502Y10044D1*
X16488Y9972D1*
Y9901D1*
X16502Y9843D1*
X16531Y9814D1*
X16574Y9800D1*
X16588D1*
X16631Y9814D1*
X16660Y9843D1*
X16674Y9886D1*
Y9901D1*
X16660Y9944D1*
X16631Y9972D1*
X16588Y9986D1*
X16574D1*
X16531Y9972D1*
X16502Y9944D1*
X16488Y9901D1*
X15545Y9800D2*
X15688Y10101D1*
X15488D1*
X14559D2*
X14516Y10087D1*
X14502Y10058D1*
Y10030D1*
X14516Y10001D1*
X14545Y9986D1*
X14602Y9972D1*
X14645Y9958D1*
X14674Y9929D1*
X14688Y9901D1*
Y9857D1*
X14674Y9829D1*
X14660Y9814D1*
X14616Y9800D1*
X14559D1*
X14516Y9814D1*
X14502Y9829D1*
X14487Y9857D1*
Y9901D1*
X14502Y9929D1*
X14531Y9958D1*
X14573Y9972D1*
X14631Y9986D1*
X14660Y10001D1*
X14674Y10030D1*
Y10058D1*
X14660Y10087D1*
X14616Y10101D1*
X14559D1*
X7424Y10044D2*
X7453Y10058D1*
X7496Y10101D1*
Y9800D1*
X7732D2*
Y10101D1*
X7589Y9901D1*
X7804D1*
X8424Y10044D2*
X8453Y10058D1*
X8496Y10101D1*
Y9800D1*
X8618Y10101D2*
X8775D1*
X8689Y9986D1*
X8732D1*
X8761Y9972D1*
X8775Y9958D1*
X8790Y9915D1*
Y9886D1*
X8775Y9843D1*
X8747Y9814D1*
X8704Y9800D1*
X8661D1*
X8618Y9814D1*
X8603Y9829D1*
X8589Y9857D1*
X9424Y10044D2*
X9453Y10058D1*
X9496Y10101D1*
Y9800D1*
X9604Y10030D2*
Y10044D1*
X9618Y10073D1*
X9632Y10087D1*
X9661Y10101D1*
X9718D1*
X9747Y10087D1*
X9761Y10073D1*
X9776Y10044D1*
Y10015D1*
X9761Y9986D1*
X9733Y9944D1*
X9589Y9800D1*
X9790D1*
X11487Y10044D2*
X11516Y10058D1*
X11559Y10101D1*
Y9800D1*
X11652Y10044D2*
X11681Y10058D1*
X11724Y10101D1*
Y9800D1*
X12425Y10044D2*
X12454Y10058D1*
X12497Y10101D1*
Y9800D1*
X12676Y10101D2*
X12632Y10087D1*
X12604Y10044D1*
X12589Y9972D1*
Y9929D1*
X12604Y9857D1*
X12632Y9814D1*
X12676Y9800D1*
X12704D1*
X12747Y9814D1*
X12776Y9857D1*
X12790Y9929D1*
Y9972D1*
X12776Y10044D1*
X12747Y10087D1*
X12704Y10101D1*
X12676D1*
X12776Y10044D2*
X12604Y9857D1*
X13674Y10001D2*
X13659Y9958D1*
X13631Y9929D1*
X13588Y9915D1*
X13574D1*
X13530Y9929D1*
X13502Y9958D1*
X13487Y10001D1*
Y10015D1*
X13502Y10058D1*
X13530Y10087D1*
X13574Y10101D1*
X13588D1*
X13631Y10087D1*
X13659Y10058D1*
X13674Y10001D1*
Y9929D1*
X13659Y9857D1*
X13631Y9814D1*
X13588Y9800D1*
X13559D1*
X13516Y9814D1*
X13502Y9843D1*
X10572Y8760D2*
Y8889D1*
X10558Y8932D1*
X10543Y8946D1*
X10515Y8960D1*
X10486D1*
X10458Y8946D1*
X10443Y8932D1*
X10429Y8889D1*
Y8760D1*
X10730D1*
X10572Y8860D2*
X10730Y8960D1*
X10429Y9240D2*
Y9053D1*
X10730D1*
Y9240D1*
X10572Y9053D2*
Y9168D1*
X10472Y9533D2*
X10443Y9505D1*
X10429Y9461D1*
Y9404D1*
X10443Y9361D1*
X10472Y9332D1*
X10500D1*
X10529Y9347D1*
X10543Y9361D1*
X10558Y9390D1*
X10587Y9476D1*
X10601Y9505D1*
X10615Y9519D1*
X10644Y9533D1*
X10687D1*
X10716Y9505D1*
X10730Y9461D1*
Y9404D1*
X10716Y9361D1*
X10687Y9332D1*
X10429Y9812D2*
Y9626D1*
X10730D1*
Y9812D1*
X10572Y9626D2*
Y9740D1*
X10429Y10005D2*
X10730D1*
X10429Y9905D2*
Y10106D1*
X10350Y8760D2*
Y10198D1*
X6174Y10001D2*
X6260Y9800D1*
X6346Y10001D1*
X6439Y10101D2*
Y9800D1*
Y9958D2*
X6468Y9987D1*
X6496Y10001D1*
X6539D1*
X6568Y9987D1*
X6597Y9958D1*
X6611Y9915D1*
Y9886D1*
X6597Y9843D1*
X6568Y9815D1*
X6539Y9800D1*
X6496D1*
X6468Y9815D1*
X6439Y9843D1*
X6876Y10001D2*
Y9800D1*
Y9958D2*
X6847Y9987D1*
X6818Y10001D1*
X6776D1*
X6747Y9987D1*
X6718Y9958D1*
X6704Y9915D1*
Y9886D1*
X6718Y9843D1*
X6747Y9815D1*
X6776Y9800D1*
X6818D1*
X6847Y9815D1*
X6876Y9843D1*
X7011Y10101D2*
Y9857D1*
X7026Y9815D1*
X7055Y9800D1*
X7083D1*
X6968Y10001D2*
X7069D1*
X4283D2*
Y9800D1*
Y9958D2*
X4255Y9987D1*
X4226Y10001D1*
X4183D1*
X4154Y9987D1*
X4126Y9958D1*
X4111Y9915D1*
Y9886D1*
X4126Y9843D1*
X4154Y9815D1*
X4183Y9800D1*
X4226D1*
X4255Y9815D1*
X4283Y9843D1*
X4376Y10001D2*
X4462Y9800D1*
X4548Y10001D1*
X4770Y10080D2*
Y9821D1*
X4641Y9950D2*
X4899D1*
X5346Y10001D2*
Y9800D1*
Y9958D2*
X5318Y9987D1*
X5289Y10001D1*
X5246D1*
X5217Y9987D1*
X5189Y9958D1*
X5174Y9915D1*
Y9886D1*
X5189Y9843D1*
X5217Y9815D1*
X5246Y9800D1*
X5289D1*
X5318Y9815D1*
X5346Y9843D1*
X5439Y10001D2*
X5525Y9800D1*
X5611Y10001D1*
X5703Y9951D2*
X5869D1*
X11354Y9693D2*
D12*
Y9492D1*
Y9665D2*
X11374Y9684D1*
X11393Y9693D1*
X11421D1*
X11441Y9684D1*
X11460Y9665D1*
X11469Y9636D1*
Y9617D1*
X11460Y9588D1*
X11441Y9569D1*
X11421Y9559D1*
X11393D1*
X11374Y9569D1*
X11354Y9588D1*
X11531Y9693D2*
X11569Y9559D1*
X11608Y9693D1*
X11646Y9559D1*
X11684Y9693D1*
X11746D2*
Y9559D1*
Y9655D2*
X11775Y9684D1*
X11794Y9693D1*
X11822D1*
X11842Y9684D1*
X11851Y9655D1*
Y9559D1*
Y9655D2*
X11880Y9684D1*
X11899Y9693D1*
X11928D1*
X11947Y9684D1*
X11957Y9655D1*
Y9559D1*
X12354Y9693D2*
Y9492D1*
Y9665D2*
X12374Y9684D1*
X12393Y9693D1*
X12421D1*
X12441Y9684D1*
X12460Y9665D1*
X12469Y9636D1*
Y9617D1*
X12460Y9588D1*
X12441Y9569D1*
X12421Y9559D1*
X12393D1*
X12374Y9569D1*
X12354Y9588D1*
X12531Y9693D2*
X12569Y9559D1*
X12608Y9693D1*
X12646Y9559D1*
X12684Y9693D1*
X12746D2*
Y9559D1*
Y9655D2*
X12775Y9684D1*
X12794Y9693D1*
X12822D1*
X12842Y9684D1*
X12851Y9655D1*
Y9559D1*
Y9655D2*
X12880Y9684D1*
X12899Y9693D1*
X12928D1*
X12947Y9684D1*
X12957Y9655D1*
Y9559D1*
X13292Y9693D2*
Y9492D1*
Y9665D2*
X13311Y9684D1*
X13330Y9693D1*
X13359D1*
X13378Y9684D1*
X13397Y9665D1*
X13407Y9636D1*
Y9617D1*
X13397Y9588D1*
X13378Y9569D1*
X13359Y9559D1*
X13330D1*
X13311Y9569D1*
X13292Y9588D1*
X13469Y9693D2*
X13507Y9559D1*
X13545Y9693D1*
X13584Y9559D1*
X13622Y9693D1*
X13684D2*
Y9559D1*
Y9655D2*
X13712Y9684D1*
X13732Y9693D1*
X13760D1*
X13779Y9684D1*
X13789Y9655D1*
Y9559D1*
Y9655D2*
X13818Y9684D1*
X13837Y9693D1*
X13865D1*
X13885Y9684D1*
X13894Y9655D1*
Y9559D1*
X11594Y9381D2*
Y9247D1*
Y9352D2*
X11575Y9371D1*
X11556Y9381D1*
X11527D1*
X11508Y9371D1*
X11489Y9352D1*
X11479Y9323D1*
Y9304D1*
X11489Y9276D1*
X11508Y9257D1*
X11527Y9247D1*
X11556D1*
X11575Y9257D1*
X11594Y9276D1*
X11656Y9448D2*
X11665Y9438D1*
X11675Y9448D1*
X11665Y9458D1*
X11656Y9448D1*
X11665Y9381D2*
Y9247D1*
X11737Y9381D2*
Y9247D1*
Y9343D2*
X11766Y9371D1*
X11785Y9381D1*
X11813D1*
X11833Y9371D1*
X11842Y9343D1*
Y9247D1*
X14292Y9693D2*
Y9492D1*
Y9665D2*
X14311Y9684D1*
X14330Y9693D1*
X14359D1*
X14378Y9684D1*
X14397Y9665D1*
X14407Y9636D1*
Y9617D1*
X14397Y9588D1*
X14378Y9569D1*
X14359Y9559D1*
X14330D1*
X14311Y9569D1*
X14292Y9588D1*
X14469Y9693D2*
X14507Y9559D1*
X14545Y9693D1*
X14584Y9559D1*
X14622Y9693D1*
X14684D2*
Y9559D1*
Y9655D2*
X14712Y9684D1*
X14732Y9693D1*
X14760D1*
X14779Y9684D1*
X14789Y9655D1*
Y9559D1*
Y9655D2*
X14818Y9684D1*
X14837Y9693D1*
X14865D1*
X14885Y9684D1*
X14894Y9655D1*
Y9559D1*
X12594Y9381D2*
Y9247D1*
Y9352D2*
X12575Y9371D1*
X12556Y9381D1*
X12527D1*
X12508Y9371D1*
X12489Y9352D1*
X12479Y9323D1*
Y9304D1*
X12489Y9276D1*
X12508Y9257D1*
X12527Y9247D1*
X12556D1*
X12575Y9257D1*
X12594Y9276D1*
X12656Y9448D2*
X12665Y9438D1*
X12675Y9448D1*
X12665Y9458D1*
X12656Y9448D1*
X12665Y9381D2*
Y9247D1*
X12737Y9381D2*
Y9247D1*
Y9343D2*
X12766Y9371D1*
X12785Y9381D1*
X12813D1*
X12833Y9371D1*
X12842Y9343D1*
Y9247D1*
X13532Y9381D2*
Y9247D1*
Y9352D2*
X13513Y9371D1*
X13494Y9381D1*
X13465D1*
X13446Y9371D1*
X13427Y9352D1*
X13417Y9323D1*
Y9304D1*
X13427Y9276D1*
X13446Y9257D1*
X13465Y9247D1*
X13494D1*
X13513Y9257D1*
X13532Y9276D1*
X13594Y9448D2*
X13603Y9438D1*
X13613Y9448D1*
X13603Y9458D1*
X13594Y9448D1*
X13603Y9381D2*
Y9247D1*
X13675Y9381D2*
Y9247D1*
Y9343D2*
X13703Y9371D1*
X13723Y9381D1*
X13751D1*
X13770Y9371D1*
X13780Y9343D1*
Y9247D1*
X14532Y9381D2*
Y9247D1*
Y9352D2*
X14513Y9371D1*
X14494Y9381D1*
X14465D1*
X14446Y9371D1*
X14427Y9352D1*
X14417Y9323D1*
Y9304D1*
X14427Y9276D1*
X14446Y9257D1*
X14465Y9247D1*
X14494D1*
X14513Y9257D1*
X14532Y9276D1*
X14594Y9448D2*
X14603Y9438D1*
X14613Y9448D1*
X14603Y9458D1*
X14594Y9448D1*
X14603Y9381D2*
Y9247D1*
X14675Y9381D2*
Y9247D1*
Y9343D2*
X14703Y9371D1*
X14723Y9381D1*
X14751D1*
X14770Y9371D1*
X14780Y9343D1*
Y9247D1*
X15595Y9395D2*
Y9261D1*
Y9366D2*
X15576Y9386D1*
X15556Y9395D1*
X15528D1*
X15509Y9386D1*
X15490Y9366D1*
X15480Y9338D1*
Y9319D1*
X15490Y9290D1*
X15509Y9271D1*
X15528Y9261D1*
X15556D1*
X15576Y9271D1*
X15595Y9290D1*
X15656Y9462D2*
X15666Y9453D1*
X15676Y9462D1*
X15666Y9472D1*
X15656Y9462D1*
X15666Y9395D2*
Y9261D1*
X15737Y9395D2*
Y9261D1*
Y9357D2*
X15766Y9386D1*
X15785Y9395D1*
X15814D1*
X15833Y9386D1*
X15843Y9357D1*
Y9261D1*
X16532Y9381D2*
Y9247D1*
Y9352D2*
X16513Y9371D1*
X16494Y9381D1*
X16465D1*
X16446Y9371D1*
X16427Y9352D1*
X16417Y9323D1*
Y9304D1*
X16427Y9276D1*
X16446Y9257D1*
X16465Y9247D1*
X16494D1*
X16513Y9257D1*
X16532Y9276D1*
X16594Y9448D2*
X16603Y9438D1*
X16613Y9448D1*
X16603Y9458D1*
X16594Y9448D1*
X16603Y9381D2*
Y9247D1*
X16675Y9381D2*
Y9247D1*
Y9343D2*
X16704Y9371D1*
X16723Y9381D1*
X16751D1*
X16771Y9371D1*
X16780Y9343D1*
Y9247D1*
X17595Y9381D2*
Y9247D1*
Y9352D2*
X17576Y9371D1*
X17557Y9381D1*
X17528D1*
X17509Y9371D1*
X17490Y9352D1*
X17480Y9323D1*
Y9304D1*
X17490Y9276D1*
X17509Y9257D1*
X17528Y9247D1*
X17557D1*
X17576Y9257D1*
X17595Y9276D1*
X17657Y9448D2*
X17666Y9438D1*
X17676Y9448D1*
X17666Y9458D1*
X17657Y9448D1*
X17666Y9381D2*
Y9247D1*
X17738Y9381D2*
Y9247D1*
Y9343D2*
X17766Y9371D1*
X17785Y9381D1*
X17814D1*
X17833Y9371D1*
X17843Y9343D1*
Y9247D1*
X18532Y9381D2*
Y9247D1*
Y9352D2*
X18513Y9371D1*
X18494Y9381D1*
X18466D1*
X18446Y9371D1*
X18427Y9352D1*
X18418Y9323D1*
Y9304D1*
X18427Y9276D1*
X18446Y9257D1*
X18466Y9247D1*
X18494D1*
X18513Y9257D1*
X18532Y9276D1*
X18594Y9448D2*
X18604Y9438D1*
X18613Y9448D1*
X18604Y9458D1*
X18594Y9448D1*
X18604Y9381D2*
Y9247D1*
X18675Y9381D2*
Y9247D1*
Y9343D2*
X18704Y9371D1*
X18723Y9381D1*
X18752D1*
X18771Y9371D1*
X18780Y9343D1*
Y9247D1*
X19532Y9381D2*
Y9247D1*
Y9352D2*
X19513Y9371D1*
X19494Y9381D1*
X19466D1*
X19446Y9371D1*
X19427Y9352D1*
X19418Y9323D1*
Y9304D1*
X19427Y9276D1*
X19446Y9257D1*
X19466Y9247D1*
X19494D1*
X19513Y9257D1*
X19532Y9276D1*
X19594Y9448D2*
X19604Y9438D1*
X19613Y9448D1*
X19604Y9458D1*
X19594Y9448D1*
X19604Y9381D2*
Y9247D1*
X19675Y9381D2*
Y9247D1*
Y9343D2*
X19704Y9371D1*
X19723Y9381D1*
X19752D1*
X19771Y9371D1*
X19780Y9343D1*
Y9247D1*
X20479Y8912D2*
X20680D1*
X20574D2*
X20555Y8931D1*
X20546Y8950D1*
Y8979D1*
X20555Y8998D1*
X20574Y9017D1*
X20603Y9027D1*
X20622D1*
X20651Y9017D1*
X20670Y8998D1*
X20680Y8979D1*
Y8950D1*
X20670Y8931D1*
X20651Y8912D1*
X20546Y9136D2*
X20555Y9117D1*
X20574Y9098D1*
X20603Y9088D1*
X20622D1*
X20651Y9098D1*
X20670Y9117D1*
X20680Y9136D1*
Y9165D1*
X20670Y9184D1*
X20651Y9203D1*
X20622Y9213D1*
X20603D1*
X20574Y9203D1*
X20555Y9184D1*
X20546Y9165D1*
Y9136D1*
Y9322D2*
X20555Y9303D1*
X20574Y9284D1*
X20603Y9275D1*
X20622D1*
X20651Y9284D1*
X20670Y9303D1*
X20680Y9322D1*
Y9351D1*
X20670Y9370D1*
X20651Y9389D1*
X20622Y9399D1*
X20603D1*
X20574Y9389D1*
X20555Y9370D1*
X20546Y9351D1*
Y9322D1*
X20479Y9489D2*
X20641D1*
X20670Y9499D1*
X20680Y9518D1*
Y9537D1*
X20546Y9461D2*
Y9528D1*
X20517Y9599D2*
X20507Y9618D1*
X20479Y9647D1*
X20680D1*
X21447Y9760D2*
Y9598D1*
X21456Y9569D1*
X21475Y9559D1*
X21494D1*
X21418Y9693D2*
X21485D1*
X21556D2*
X21661Y9559D1*
Y9693D2*
X21556Y9559D1*
X21742Y9760D2*
X21847D1*
X21790Y9684D1*
X21819D1*
X21838Y9674D1*
X21847Y9665D1*
X21857Y9636D1*
Y9617D1*
X21847Y9588D1*
X21828Y9569D1*
X21800Y9559D1*
X21771D1*
X21742Y9569D1*
X21733Y9579D1*
X21723Y9598D1*
X22418Y9693D2*
Y9559D1*
Y9636D2*
X22428Y9665D1*
X22447Y9684D1*
X22466Y9693D1*
X22495D1*
X22557D2*
X22662Y9559D1*
Y9693D2*
X22557Y9559D1*
X22743Y9760D2*
X22848D1*
X22790Y9684D1*
X22819D1*
X22838Y9674D1*
X22848Y9665D1*
X22857Y9636D1*
Y9617D1*
X22848Y9588D1*
X22829Y9569D1*
X22800Y9559D1*
X22771D1*
X22743Y9569D1*
X22733Y9579D1*
X22723Y9598D1*
X23356Y9693D2*
Y9559D1*
Y9655D2*
X23384Y9684D1*
X23404Y9693D1*
X23432D1*
X23451Y9684D1*
X23461Y9655D1*
Y9559D1*
Y9655D2*
X23490Y9684D1*
X23509Y9693D1*
X23537D1*
X23557Y9684D1*
X23566Y9655D1*
Y9559D1*
X23743Y9693D2*
Y9559D1*
Y9665D2*
X23724Y9684D1*
X23705Y9693D1*
X23676D1*
X23657Y9684D1*
X23638Y9665D1*
X23628Y9636D1*
Y9617D1*
X23638Y9588D1*
X23657Y9569D1*
X23676Y9559D1*
X23705D1*
X23724Y9569D1*
X23743Y9588D1*
X23805Y9693D2*
X23910Y9559D1*
Y9693D2*
X23805Y9559D1*
X22461Y9352D2*
X22451Y9371D1*
X22423Y9381D1*
X22394D1*
X22365Y9371D1*
X22356Y9352D1*
X22365Y9333D1*
X22384Y9323D1*
X22432Y9314D1*
X22451Y9304D1*
X22461Y9285D1*
Y9276D1*
X22451Y9257D1*
X22423Y9247D1*
X22394D1*
X22365Y9257D1*
X22356Y9276D1*
X22637Y9352D2*
X22618Y9371D1*
X22599Y9381D1*
X22570D1*
X22551Y9371D1*
X22532Y9352D1*
X22523Y9323D1*
Y9304D1*
X22532Y9276D1*
X22551Y9257D1*
X22570Y9247D1*
X22599D1*
X22618Y9257D1*
X22637Y9276D1*
X22814Y9381D2*
Y9247D1*
Y9352D2*
X22795Y9371D1*
X22776Y9381D1*
X22747D1*
X22728Y9371D1*
X22709Y9352D1*
X22699Y9323D1*
Y9304D1*
X22709Y9276D1*
X22728Y9257D1*
X22747Y9247D1*
X22776D1*
X22795Y9257D1*
X22814Y9276D1*
X21811Y9070D2*
X21821Y9061D1*
X21831Y9070D1*
X21821Y9080D1*
X21811Y9070D1*
X21821Y9003D2*
Y8869D1*
X21902Y9022D2*
Y9032D1*
X21912Y9051D1*
X21921Y9060D1*
X21940Y9070D1*
X21979D1*
X21998Y9060D1*
X22007Y9051D1*
X22017Y9032D1*
Y9013D1*
X22007Y8993D1*
X21988Y8965D1*
X21892Y8869D1*
X22026D1*
X22203Y8974D2*
X22184Y8994D1*
X22165Y9003D1*
X22136D1*
X22117Y8994D1*
X22098Y8974D1*
X22088Y8946D1*
Y8927D1*
X22098Y8898D1*
X22117Y8879D1*
X22136Y8869D1*
X22165D1*
X22184Y8879D1*
X22203Y8898D1*
X22275Y9022D2*
Y9032D1*
X22284Y9051D1*
X22294Y9060D1*
X22313Y9070D1*
X22351D1*
X22370Y9060D1*
X22380Y9051D1*
X22389Y9032D1*
Y9013D1*
X22380Y8993D1*
X22361Y8965D1*
X22265Y8869D1*
X22399D1*
X23418Y9409D2*
X23437Y9419D1*
X23466Y9448D1*
Y9247D1*
X23643Y9419D2*
X23633Y9438D1*
X23604Y9448D1*
X23585D1*
X23557Y9438D1*
X23537Y9409D1*
X23528Y9362D1*
Y9314D1*
X23537Y9276D1*
X23557Y9256D1*
X23585Y9247D1*
X23595D1*
X23623Y9256D1*
X23643Y9276D1*
X23652Y9304D1*
Y9314D1*
X23643Y9343D1*
X23623Y9362D1*
X23595Y9371D1*
X23585D1*
X23557Y9362D1*
X23537Y9343D1*
X23528Y9314D1*
X23714Y9448D2*
X23790Y9247D1*
X23867Y9448D1*
X21586Y9352D2*
X21576Y9371D1*
X21547Y9381D1*
X21519D1*
X21490Y9371D1*
X21480Y9352D1*
X21490Y9333D1*
X21509Y9323D1*
X21557Y9314D1*
X21576Y9304D1*
X21586Y9285D1*
Y9276D1*
X21576Y9257D1*
X21547Y9247D1*
X21519D1*
X21490Y9257D1*
X21480Y9276D1*
X21762Y9352D2*
X21743Y9371D1*
X21724Y9381D1*
X21695D1*
X21676Y9371D1*
X21657Y9352D1*
X21647Y9323D1*
Y9304D1*
X21657Y9276D1*
X21676Y9257D1*
X21695Y9247D1*
X21724D1*
X21743Y9257D1*
X21762Y9276D1*
X21824Y9448D2*
Y9247D1*
X23495Y5555D2*
X23485Y5574D1*
X23457Y5584D1*
X23428D1*
X23399Y5574D1*
X23390Y5555D1*
X23399Y5536D1*
X23418Y5526D1*
X23466Y5517D1*
X23485Y5507D1*
X23495Y5488D1*
Y5479D1*
X23485Y5460D1*
X23457Y5450D1*
X23428D1*
X23399Y5460D1*
X23390Y5479D1*
X23662Y5555D2*
X23652Y5574D1*
X23624Y5584D1*
X23595D1*
X23566Y5574D1*
X23557Y5555D1*
X23566Y5536D1*
X23585Y5526D1*
X23633Y5517D1*
X23652Y5507D1*
X23662Y5488D1*
Y5479D1*
X23652Y5460D1*
X23624Y5450D1*
X23595D1*
X23566Y5460D1*
X23557Y5479D1*
X22461Y5532D2*
X22452Y5551D1*
X22423Y5561D1*
X22394D1*
X22366Y5551D1*
X22356Y5532D1*
X22366Y5513D1*
X22385Y5503D1*
X22433Y5494D1*
X22452Y5484D1*
X22461Y5465D1*
Y5456D1*
X22452Y5437D1*
X22423Y5427D1*
X22394D1*
X22366Y5437D1*
X22356Y5456D1*
X22638Y5532D2*
X22619Y5551D1*
X22600Y5561D1*
X22571D1*
X22552Y5551D1*
X22533Y5532D1*
X22523Y5503D1*
Y5484D1*
X22533Y5456D1*
X22552Y5437D1*
X22571Y5427D1*
X22600D1*
X22619Y5437D1*
X22638Y5456D1*
X22700Y5628D2*
Y5427D1*
X22796Y5561D2*
X22700Y5465D1*
X22738Y5503D2*
X22805Y5427D1*
X21294Y5561D2*
Y5427D1*
Y5523D2*
X21322Y5551D1*
X21342Y5561D1*
X21370D1*
X21389Y5551D1*
X21399Y5523D1*
Y5427D1*
Y5523D2*
X21428Y5551D1*
X21447Y5561D1*
X21475D1*
X21495Y5551D1*
X21504Y5523D1*
Y5427D1*
X21566Y5628D2*
X21576Y5618D1*
X21585Y5628D1*
X21576Y5638D1*
X21566Y5628D1*
X21576Y5561D2*
Y5427D1*
X21752Y5532D2*
X21743Y5551D1*
X21714Y5561D1*
X21685D1*
X21657Y5551D1*
X21647Y5532D1*
X21657Y5513D1*
X21676Y5503D1*
X21723Y5494D1*
X21743Y5484D1*
X21752Y5465D1*
Y5456D1*
X21743Y5437D1*
X21714Y5427D1*
X21685D1*
X21657Y5437D1*
X21647Y5456D1*
X21862Y5561D2*
X21843Y5551D1*
X21823Y5532D1*
X21814Y5503D1*
Y5484D1*
X21823Y5456D1*
X21843Y5437D1*
X21862Y5427D1*
X21890D1*
X21910Y5437D1*
X21929Y5456D1*
X21938Y5484D1*
Y5503D1*
X21929Y5532D1*
X21910Y5551D1*
X21890Y5561D1*
X21862D1*
X20293D2*
Y5427D1*
Y5523D2*
X20322Y5551D1*
X20341Y5561D1*
X20370D1*
X20389Y5551D1*
X20399Y5523D1*
Y5427D1*
Y5523D2*
X20427Y5551D1*
X20447Y5561D1*
X20475D1*
X20494Y5551D1*
X20504Y5523D1*
Y5427D1*
X20614Y5561D2*
X20595Y5551D1*
X20575Y5532D1*
X20566Y5503D1*
Y5484D1*
X20575Y5456D1*
X20595Y5437D1*
X20614Y5427D1*
X20642D1*
X20662Y5437D1*
X20681Y5456D1*
X20690Y5484D1*
Y5503D1*
X20681Y5532D1*
X20662Y5551D1*
X20642Y5561D1*
X20614D1*
X20857Y5532D2*
X20848Y5551D1*
X20819Y5561D1*
X20790D1*
X20762Y5551D1*
X20752Y5532D1*
X20762Y5513D1*
X20781Y5503D1*
X20829Y5494D1*
X20848Y5484D1*
X20857Y5465D1*
Y5456D1*
X20848Y5437D1*
X20819Y5427D1*
X20790D1*
X20762Y5437D1*
X20752Y5456D1*
X20919Y5628D2*
X20929Y5618D1*
X20938Y5628D1*
X20929Y5638D1*
X20919Y5628D1*
X20929Y5561D2*
Y5427D1*
X21961Y5782D2*
X21952Y5801D1*
X21923Y5811D1*
X21894D1*
X21866Y5801D1*
X21856Y5782D1*
X21866Y5763D1*
X21885Y5753D1*
X21933Y5744D1*
X21952Y5734D1*
X21961Y5715D1*
Y5706D1*
X21952Y5687D1*
X21923Y5677D1*
X21894D1*
X21866Y5687D1*
X21856Y5706D1*
X22023Y5811D2*
Y5610D1*
Y5782D2*
X22042Y5801D1*
X22061Y5811D1*
X22090D1*
X22109Y5801D1*
X22128Y5782D1*
X22138Y5753D1*
Y5734D1*
X22128Y5706D1*
X22109Y5686D1*
X22090Y5677D1*
X22061D1*
X22042Y5686D1*
X22023Y5706D1*
X22200Y5878D2*
X22209Y5868D1*
X22219Y5878D1*
X22209Y5888D1*
X22200Y5878D1*
X22209Y5811D2*
Y5677D1*
X22291Y5830D2*
Y5839D1*
X22300Y5859D1*
X22310Y5868D1*
X22329Y5878D1*
X22367D1*
X22386Y5868D1*
X22396Y5859D1*
X22405Y5839D1*
Y5820D1*
X22396Y5801D1*
X22377Y5773D1*
X22281Y5677D1*
X22415D1*
X7355Y5561D2*
Y5360D1*
Y5532D2*
X7374Y5551D1*
X7393Y5561D1*
X7422D1*
X7441Y5551D1*
X7460Y5532D1*
X7470Y5503D1*
Y5484D1*
X7460Y5456D1*
X7441Y5436D1*
X7422Y5427D1*
X7393D1*
X7374Y5436D1*
X7355Y5456D1*
X7531Y5561D2*
X7570Y5427D1*
X7608Y5561D1*
X7646Y5427D1*
X7684Y5561D1*
X7746D2*
Y5427D1*
Y5523D2*
X7775Y5551D1*
X7794Y5561D1*
X7823D1*
X7842Y5551D1*
X7851Y5523D1*
Y5427D1*
Y5523D2*
X7880Y5551D1*
X7899Y5561D1*
X7928D1*
X7947Y5551D1*
X7957Y5523D1*
Y5427D1*
X8522Y5782D2*
X8513Y5801D1*
X8484Y5811D1*
X8455D1*
X8427Y5801D1*
X8417Y5782D1*
X8427Y5763D1*
X8446Y5753D1*
X8494Y5744D1*
X8513Y5734D1*
X8522Y5715D1*
Y5706D1*
X8513Y5687D1*
X8484Y5677D1*
X8455D1*
X8427Y5687D1*
X8417Y5706D1*
X8699Y5782D2*
X8680Y5801D1*
X8661Y5811D1*
X8632D1*
X8613Y5801D1*
X8594Y5782D1*
X8584Y5753D1*
Y5734D1*
X8594Y5706D1*
X8613Y5687D1*
X8632Y5677D1*
X8661D1*
X8680Y5687D1*
X8699Y5706D1*
X8761Y5878D2*
Y5677D1*
X7522Y5782D2*
X7513Y5801D1*
X7484Y5811D1*
X7455D1*
X7427Y5801D1*
X7417Y5782D1*
X7427Y5763D1*
X7446Y5753D1*
X7494Y5744D1*
X7513Y5734D1*
X7522Y5715D1*
Y5706D1*
X7513Y5687D1*
X7484Y5677D1*
X7455D1*
X7427Y5687D1*
X7417Y5706D1*
X7699Y5878D2*
Y5677D1*
Y5782D2*
X7680Y5801D1*
X7661Y5811D1*
X7632D1*
X7613Y5801D1*
X7594Y5782D1*
X7584Y5753D1*
Y5734D1*
X7594Y5706D1*
X7613Y5687D1*
X7632Y5677D1*
X7661D1*
X7680Y5687D1*
X7699Y5706D1*
X7875Y5811D2*
Y5677D1*
Y5782D2*
X7856Y5801D1*
X7837Y5811D1*
X7809D1*
X7789Y5801D1*
X7770Y5782D1*
X7761Y5753D1*
Y5734D1*
X7770Y5706D1*
X7789Y5687D1*
X7809Y5677D1*
X7837D1*
X7856Y5687D1*
X7875Y5706D1*
X7855Y6190D2*
X7864Y6181D1*
X7874Y6190D1*
X7864Y6200D1*
X7855Y6190D1*
X7864Y6123D2*
Y5989D1*
X7945Y6142D2*
Y6152D1*
X7955Y6171D1*
X7964Y6181D1*
X7984Y6190D1*
X8022D1*
X8041Y6181D1*
X8050Y6171D1*
X8060Y6152D1*
Y6133D1*
X8050Y6114D1*
X8031Y6085D1*
X7936Y5989D1*
X8070D1*
X8246Y6095D2*
X8227Y6114D1*
X8208Y6123D1*
X8179D1*
X8160Y6114D1*
X8141Y6095D1*
X8131Y6066D1*
Y6047D1*
X8141Y6018D1*
X8160Y5999D1*
X8179Y5989D1*
X8208D1*
X8227Y5999D1*
X8246Y6018D1*
X8308Y6152D2*
X8327Y6162D1*
X8356Y6190D1*
Y5989D1*
X13446Y9128D2*
Y8965D1*
X13456Y8937D1*
X13475Y8927D1*
X13494D1*
X13418Y9061D2*
X13485D1*
X13556D2*
X13661Y8927D1*
Y9061D2*
X13556Y8927D1*
X13733Y9080D2*
Y9090D1*
X13742Y9109D1*
X13752Y9118D1*
X13771Y9128D1*
X13809D1*
X13828Y9118D1*
X13838Y9109D1*
X13847Y9090D1*
Y9071D1*
X13838Y9051D1*
X13819Y9023D1*
X13723Y8927D1*
X13857D1*
X14480Y9061D2*
Y8927D1*
Y9004D2*
X14490Y9032D1*
X14509Y9052D1*
X14528Y9061D1*
X14557D1*
X14619D2*
X14724Y8927D1*
Y9061D2*
X14619Y8927D1*
X14796Y9080D2*
Y9090D1*
X14805Y9109D1*
X14815Y9118D1*
X14834Y9128D1*
X14872D1*
X14891Y9118D1*
X14901Y9109D1*
X14910Y9090D1*
Y9071D1*
X14901Y9051D1*
X14882Y9023D1*
X14786Y8927D1*
X14920D1*
X16461Y9032D2*
X16451Y9052D1*
X16423Y9061D1*
X16394D1*
X16365Y9052D1*
X16356Y9032D1*
X16365Y9013D1*
X16384Y9004D1*
X16432Y8994D1*
X16451Y8985D1*
X16461Y8965D1*
Y8956D1*
X16451Y8937D1*
X16423Y8927D1*
X16394D1*
X16365Y8937D1*
X16356Y8956D1*
X16637Y9032D2*
X16618Y9052D1*
X16599Y9061D1*
X16571D1*
X16551Y9052D1*
X16532Y9032D1*
X16523Y9004D1*
Y8985D1*
X16532Y8956D1*
X16551Y8937D1*
X16571Y8927D1*
X16599D1*
X16618Y8937D1*
X16637Y8956D1*
X16699Y9128D2*
Y8927D1*
X16795Y9061D2*
X16699Y8965D1*
X16737Y9004D2*
X16804Y8927D1*
X15624Y9028D2*
X15614Y9047D1*
X15586Y9057D1*
X15557D1*
X15528Y9047D1*
X15519Y9028D1*
X15528Y9009D1*
X15547Y8999D1*
X15595Y8990D1*
X15614Y8980D1*
X15624Y8961D1*
Y8952D1*
X15614Y8933D1*
X15586Y8923D1*
X15557D1*
X15528Y8933D1*
X15519Y8952D1*
X15791Y9028D2*
X15781Y9047D1*
X15753Y9057D1*
X15724D1*
X15695Y9047D1*
X15686Y9028D1*
X15695Y9009D1*
X15714Y8999D1*
X15762Y8990D1*
X15781Y8980D1*
X15791Y8961D1*
Y8952D1*
X15781Y8933D1*
X15753Y8923D1*
X15724D1*
X15695Y8933D1*
X15686Y8952D1*
X17293Y9061D2*
Y8927D1*
Y9023D2*
X17322Y9052D1*
X17341Y9061D1*
X17370D1*
X17389Y9052D1*
X17398Y9023D1*
Y8927D1*
Y9023D2*
X17427Y9052D1*
X17446Y9061D1*
X17475D1*
X17494Y9052D1*
X17504Y9023D1*
Y8927D1*
X17566Y9128D2*
X17575Y9119D1*
X17585Y9128D1*
X17575Y9138D1*
X17566Y9128D1*
X17575Y9061D2*
Y8927D1*
X17752Y9032D2*
X17742Y9052D1*
X17714Y9061D1*
X17685D1*
X17656Y9052D1*
X17647Y9032D1*
X17656Y9013D1*
X17675Y9004D1*
X17723Y8994D1*
X17742Y8985D1*
X17752Y8965D1*
Y8956D1*
X17742Y8937D1*
X17714Y8927D1*
X17685D1*
X17656Y8937D1*
X17647Y8956D1*
X17861Y9061D2*
X17842Y9052D1*
X17823Y9032D1*
X17814Y9004D1*
Y8985D1*
X17823Y8956D1*
X17842Y8937D1*
X17861Y8927D1*
X17890D1*
X17909Y8937D1*
X17928Y8956D1*
X17938Y8985D1*
Y9004D1*
X17928Y9032D1*
X17909Y9052D1*
X17890Y9061D1*
X17861D1*
X15595Y5635D2*
Y5434D1*
Y5539D2*
X15576Y5558D1*
X15556Y5568D1*
X15528D1*
X15509Y5558D1*
X15489Y5539D1*
X15480Y5510D1*
Y5491D1*
X15489Y5463D1*
X15509Y5444D1*
X15528Y5434D1*
X15556D1*
X15576Y5444D1*
X15595Y5463D1*
X15656Y5568D2*
Y5367D1*
Y5539D2*
X15676Y5558D1*
X15695Y5568D1*
X15723D1*
X15743Y5558D1*
X15762Y5539D1*
X15771Y5510D1*
Y5491D1*
X15762Y5463D1*
X15743Y5443D1*
X15723Y5434D1*
X15695D1*
X15676Y5443D1*
X15656Y5463D1*
X18293Y5568D2*
Y5367D1*
Y5539D2*
X18312Y5558D1*
X18331Y5568D1*
X18360D1*
X18379Y5558D1*
X18398Y5539D1*
X18408Y5510D1*
Y5491D1*
X18398Y5463D1*
X18379Y5443D1*
X18360Y5434D1*
X18331D1*
X18312Y5443D1*
X18293Y5463D1*
X18469Y5568D2*
X18508Y5434D1*
X18546Y5568D1*
X18584Y5434D1*
X18622Y5568D1*
X18684D2*
Y5434D1*
Y5530D2*
X18713Y5558D1*
X18732Y5568D1*
X18761D1*
X18780Y5558D1*
X18789Y5530D1*
Y5434D1*
Y5530D2*
X18818Y5558D1*
X18837Y5568D1*
X18866D1*
X18885Y5558D1*
X18895Y5530D1*
Y5434D1*
X17355Y5568D2*
Y5367D1*
Y5539D2*
X17374Y5558D1*
X17393Y5568D1*
X17422D1*
X17441Y5558D1*
X17460Y5539D1*
X17470Y5510D1*
Y5491D1*
X17460Y5463D1*
X17441Y5443D1*
X17422Y5434D1*
X17393D1*
X17374Y5443D1*
X17355Y5463D1*
X17532Y5568D2*
X17570Y5434D1*
X17608Y5568D1*
X17646Y5434D1*
X17685Y5568D1*
X17746D2*
Y5434D1*
Y5530D2*
X17775Y5558D1*
X17794Y5568D1*
X17823D1*
X17842Y5558D1*
X17852Y5530D1*
Y5434D1*
Y5530D2*
X17880Y5558D1*
X17900Y5568D1*
X17928D1*
X17947Y5558D1*
X17957Y5530D1*
Y5434D1*
X17418Y5818D2*
Y5684D1*
Y5760D2*
X17427Y5789D1*
X17446Y5808D1*
X17465Y5818D1*
X17494D1*
X17556D2*
X17661Y5684D1*
Y5818D2*
X17556Y5684D1*
X17723Y5846D2*
X17742Y5856D1*
X17771Y5885D1*
Y5684D1*
X18446Y5885D2*
Y5722D1*
X18456Y5694D1*
X18475Y5684D1*
X18494D1*
X18418Y5818D2*
X18485D1*
X18556D2*
X18661Y5684D1*
Y5818D2*
X18556Y5684D1*
X18723Y5846D2*
X18742Y5856D1*
X18771Y5885D1*
Y5684D1*
X16532Y5635D2*
Y5434D1*
Y5539D2*
X16513Y5558D1*
X16494Y5568D1*
X16465D1*
X16446Y5558D1*
X16427Y5539D1*
X16417Y5510D1*
Y5491D1*
X16427Y5463D1*
X16446Y5444D1*
X16465Y5434D1*
X16494D1*
X16513Y5444D1*
X16532Y5463D1*
X16594Y5568D2*
Y5434D1*
Y5530D2*
X16623Y5558D1*
X16642Y5568D1*
X16670D1*
X16690Y5558D1*
X16699Y5530D1*
Y5434D1*
Y5530D2*
X16728Y5558D1*
X16747Y5568D1*
X16776D1*
X16795Y5558D1*
X16805Y5530D1*
Y5434D1*
X15917Y5943D2*
Y5847D1*
X15927Y5819D1*
X15946Y5809D1*
X15975D1*
X15994Y5819D1*
X16023Y5847D1*
Y5943D2*
Y5809D1*
X16190Y5914D2*
X16180Y5933D1*
X16151Y5943D1*
X16123D1*
X16094Y5933D1*
X16084Y5914D1*
X16094Y5895D1*
X16113Y5885D1*
X16161Y5876D1*
X16180Y5866D1*
X16190Y5847D1*
Y5838D1*
X16180Y5819D1*
X16151Y5809D1*
X16123D1*
X16094Y5819D1*
X16084Y5838D1*
X16251Y6010D2*
Y5809D1*
Y5914D2*
X16271Y5933D1*
X16290Y5943D1*
X16318D1*
X16337Y5933D1*
X16357Y5914D1*
X16366Y5885D1*
Y5866D1*
X16357Y5838D1*
X16337Y5819D1*
X16318Y5809D1*
X16290D1*
X16271Y5819D1*
X16251Y5838D1*
X19293Y5568D2*
Y5367D1*
Y5539D2*
X19312Y5558D1*
X19331Y5568D1*
X19360D1*
X19379Y5558D1*
X19398Y5539D1*
X19408Y5510D1*
Y5491D1*
X19398Y5463D1*
X19379Y5443D1*
X19360Y5434D1*
X19331D1*
X19312Y5443D1*
X19293Y5463D1*
X19469Y5568D2*
X19508Y5434D1*
X19546Y5568D1*
X19584Y5434D1*
X19622Y5568D1*
X19684D2*
Y5434D1*
Y5530D2*
X19713Y5558D1*
X19732Y5568D1*
X19761D1*
X19780Y5558D1*
X19789Y5530D1*
Y5434D1*
Y5530D2*
X19818Y5558D1*
X19837Y5568D1*
X19866D1*
X19885Y5558D1*
X19895Y5530D1*
Y5434D1*
X8292Y5561D2*
Y5360D1*
Y5532D2*
X8311Y5551D1*
X8330Y5561D1*
X8359D1*
X8378Y5551D1*
X8397Y5532D1*
X8407Y5503D1*
Y5484D1*
X8397Y5456D1*
X8378Y5436D1*
X8359Y5427D1*
X8330D1*
X8311Y5436D1*
X8292Y5456D1*
X8469Y5561D2*
X8507Y5427D1*
X8545Y5561D1*
X8584Y5427D1*
X8622Y5561D1*
X8684D2*
Y5427D1*
Y5523D2*
X8712Y5551D1*
X8732Y5561D1*
X8760D1*
X8779Y5551D1*
X8789Y5523D1*
Y5427D1*
Y5523D2*
X8818Y5551D1*
X8837Y5561D1*
X8865D1*
X8885Y5551D1*
X8894Y5523D1*
Y5427D1*
X18231Y9061D2*
Y8927D1*
Y9023D2*
X18259Y9052D1*
X18279Y9061D1*
X18307D1*
X18326Y9052D1*
X18336Y9023D1*
Y8927D1*
Y9023D2*
X18365Y9052D1*
X18384Y9061D1*
X18412D1*
X18432Y9052D1*
X18441Y9023D1*
Y8927D1*
X18551Y9061D2*
X18532Y9052D1*
X18513Y9032D1*
X18503Y9004D1*
Y8985D1*
X18513Y8956D1*
X18532Y8937D1*
X18551Y8927D1*
X18580D1*
X18599Y8937D1*
X18618Y8956D1*
X18628Y8985D1*
Y9004D1*
X18618Y9032D1*
X18599Y9052D1*
X18580Y9061D1*
X18551D1*
X18795Y9032D2*
X18785Y9052D1*
X18756Y9061D1*
X18728D1*
X18699Y9052D1*
X18689Y9032D1*
X18699Y9013D1*
X18718Y9004D1*
X18766Y8994D1*
X18785Y8985D1*
X18795Y8965D1*
Y8956D1*
X18785Y8937D1*
X18756Y8927D1*
X18728D1*
X18699Y8937D1*
X18689Y8956D1*
X18856Y9128D2*
X18866Y9119D1*
X18876Y9128D1*
X18866Y9138D1*
X18856Y9128D1*
X18866Y9061D2*
Y8927D1*
X16898Y8720D2*
X16889Y8739D1*
X16860Y8749D1*
X16831D1*
X16803Y8739D1*
X16793Y8720D1*
X16803Y8701D1*
X16822Y8691D1*
X16870Y8682D1*
X16889Y8672D1*
X16898Y8653D1*
Y8643D1*
X16889Y8624D1*
X16860Y8615D1*
X16831D1*
X16803Y8624D1*
X16793Y8643D1*
X16960Y8749D2*
Y8548D1*
Y8720D2*
X16979Y8739D1*
X16998Y8749D1*
X17027D1*
X17046Y8739D1*
X17065Y8720D1*
X17075Y8691D1*
Y8672D1*
X17065Y8643D1*
X17046Y8624D1*
X17027Y8615D1*
X16998D1*
X16979Y8624D1*
X16960Y8643D1*
X17137Y8816D2*
X17146Y8806D1*
X17156Y8816D1*
X17146Y8825D1*
X17137Y8816D1*
X17146Y8749D2*
Y8615D1*
X17218Y8777D2*
X17237Y8787D1*
X17266Y8815D1*
Y8615D1*
M02*
