G04 DipTrace Beta 2.3.5.2*
%INSolder_Stop_Mask_Bottom-GMaple-mini.GBS*%
%MOIN*%
%ADD42C,0.0354*%
%ADD46R,0.0828X0.0513*%
%ADD48R,0.0356X0.0435*%
%ADD50R,0.0336X0.0494*%
%ADD56C,0.0671*%
%ADD60R,0.0671X0.0671*%
%ADD62R,0.0494X0.0336*%
%ADD66R,0.0317X0.0317*%
%ADD68R,0.0435X0.0356*%
%ADD70R,0.0612X0.0454*%
%FSLAX44Y44*%
G04*
G70*
G90*
G75*
G01*
%LNBotMask*%
%LPD*%
G36*
X19785Y7636D2*
X18996D1*
Y8346D1*
X19785D1*
Y7636D1*
G37*
G36*
Y6534D2*
X18996D1*
Y7244D1*
X19785D1*
Y6534D1*
G37*
D70*
X21599Y6523D3*
Y7114D3*
X21611Y7678D3*
Y8269D3*
G36*
X12583Y9869D2*
Y9513D1*
X12149D1*
Y9869D1*
X12583D1*
G37*
G36*
X12072D2*
Y9513D1*
X11637D1*
Y9869D1*
X12072D1*
G37*
G36*
X11913Y8068D2*
Y7712D1*
X11479D1*
Y8068D1*
X11913D1*
G37*
G36*
X11402D2*
Y7712D1*
X10967D1*
Y8068D1*
X11402D1*
G37*
D68*
X14346Y5290D3*
X13834D3*
G36*
X16567Y8112D2*
Y8468D1*
X17002D1*
Y8112D1*
X16567D1*
G37*
G36*
X17079D2*
Y8468D1*
X17513D1*
Y8112D1*
X17079D1*
G37*
D68*
X10296Y5945D3*
X9784D3*
G36*
X10413Y8068D2*
Y7712D1*
X9979D1*
Y8068D1*
X10413D1*
G37*
G36*
X9902D2*
Y7712D1*
X9467D1*
Y8068D1*
X9902D1*
G37*
G36*
X6729Y8212D2*
Y8568D1*
X7163D1*
Y8212D1*
X6729D1*
G37*
G36*
X6217D2*
Y8568D1*
X6652D1*
Y8212D1*
X6217D1*
G37*
G36*
X6729Y6412D2*
Y6768D1*
X7163D1*
Y6412D1*
X6729D1*
G37*
G36*
X6217D2*
Y6768D1*
X6652D1*
Y6412D1*
X6217D1*
G37*
D66*
X18673Y7917D3*
X17806D3*
X18671Y7345D3*
X17805D3*
D62*
X20993Y7174D3*
Y6426D3*
X20087Y6800D3*
G36*
X21239Y8553D2*
Y8217D1*
X20745D1*
Y8553D1*
X21239D1*
G37*
G36*
Y7805D2*
Y7469D1*
X20745D1*
Y7805D1*
X21239D1*
G37*
G36*
X20333Y8179D2*
Y7843D1*
X19839D1*
Y8179D1*
X20333D1*
G37*
D60*
X4590Y10540D3*
D56*
X5590D3*
X6590D3*
X7590D3*
X8590D3*
X9590D3*
X10590D3*
X11590D3*
X12590D3*
X13590D3*
X14590D3*
X15590D3*
X16590D3*
X17590D3*
X18590D3*
X19590D3*
X20590D3*
X21590D3*
X22590D3*
X23590D3*
D60*
Y4540D3*
D56*
X22590D3*
X21590D3*
X20590D3*
X19590D3*
X18590D3*
X17590D3*
X16590D3*
X15590D3*
X14590D3*
X13590D3*
X12590D3*
X11590D3*
X10590D3*
X9590D3*
X8590D3*
X7590D3*
X6590D3*
X5590D3*
X4590D3*
D42*
X5717Y8426D3*
Y6694D3*
G36*
X21013Y9088D2*
Y8693D1*
X20578D1*
Y9088D1*
X21013D1*
G37*
G36*
X20462D2*
Y8693D1*
X20027D1*
Y9088D1*
X20462D1*
G37*
G36*
X8698Y8563D2*
X9034D1*
Y8069D1*
X8698D1*
Y8563D1*
G37*
G36*
X7950D2*
X8286D1*
Y8069D1*
X7950D1*
Y8563D1*
G37*
G36*
X8324Y9468D2*
X8660D1*
Y8974D1*
X8324D1*
Y9468D1*
G37*
D50*
X8865Y6440D3*
X8117D3*
X8491Y7346D3*
G36*
X18262Y6578D2*
Y6222D1*
X17827D1*
Y6578D1*
X18262D1*
G37*
G36*
X18773D2*
Y6222D1*
X18339D1*
Y6578D1*
X18773D1*
G37*
D68*
X22805Y6065D3*
X22293D3*
G36*
X16732Y7838D2*
Y7482D1*
X16297D1*
Y7838D1*
X16732D1*
G37*
G36*
X17243D2*
Y7482D1*
X16809D1*
Y7838D1*
X17243D1*
G37*
G36*
X10013Y8588D2*
Y8232D1*
X9579D1*
Y8588D1*
X10013D1*
G37*
G36*
X9502D2*
Y8232D1*
X9067D1*
Y8588D1*
X9502D1*
G37*
D68*
X6434Y7940D3*
X6946D3*
G36*
X6652Y7218D2*
Y6862D1*
X6217D1*
Y7218D1*
X6652D1*
G37*
G36*
X7163D2*
Y6862D1*
X6729D1*
Y7218D1*
X7163D1*
G37*
D48*
X7420Y7024D3*
Y7536D3*
G36*
X17513Y7368D2*
Y7012D1*
X17079D1*
Y7368D1*
X17513D1*
G37*
G36*
X17002D2*
Y7012D1*
X16567D1*
Y7368D1*
X17002D1*
G37*
G36*
X6217Y5962D2*
Y6318D1*
X6652D1*
Y5962D1*
X6217D1*
G37*
G36*
X6729D2*
Y6318D1*
X7163D1*
Y5962D1*
X6729D1*
G37*
G36*
X6217Y5512D2*
Y5868D1*
X6652D1*
Y5512D1*
X6217D1*
G37*
G36*
X6729D2*
Y5868D1*
X7163D1*
Y5512D1*
X6729D1*
G37*
G36*
X8983Y8038D2*
Y7682D1*
X8549D1*
Y8038D1*
X8983D1*
G37*
G36*
X8472D2*
Y7682D1*
X8037D1*
Y8038D1*
X8472D1*
G37*
G36*
X11862Y8097D2*
X12002Y8237D1*
X12449Y7791D1*
X12308Y7650D1*
X11862Y8097D1*
G37*
G36*
X12001Y8236D2*
X12141Y8376D1*
X12588Y7930D1*
X12448Y7790D1*
X12001Y8236D1*
G37*
G36*
X12140Y8375D2*
X12281Y8516D1*
X12727Y8069D1*
X12587Y7929D1*
X12140Y8375D1*
G37*
G36*
X12280Y8515D2*
X12420Y8655D1*
X12866Y8208D1*
X12726Y8068D1*
X12280Y8515D1*
G37*
G36*
X12419Y8654D2*
X12559Y8794D1*
X13006Y8347D1*
X12865Y8207D1*
X12419Y8654D1*
G37*
G36*
X12558Y8793D2*
X12698Y8933D1*
X13145Y8487D1*
X13004Y8346D1*
X12558Y8793D1*
G37*
G36*
X12697Y8932D2*
X12837Y9072D1*
X13284Y8626D1*
X13144Y8486D1*
X12697Y8932D1*
G37*
G36*
X12836Y9071D2*
X12977Y9212D1*
X13423Y8765D1*
X13283Y8625D1*
X12836Y9071D1*
G37*
G36*
X12975Y9210D2*
X13116Y9351D1*
X13562Y8904D1*
X13422Y8764D1*
X12975Y9210D1*
G37*
G36*
X13115Y9350D2*
X13255Y9490D1*
X13702Y9043D1*
X13561Y8903D1*
X13115Y9350D1*
G37*
G36*
X13254Y9489D2*
X13394Y9629D1*
X13841Y9183D1*
X13700Y9042D1*
X13254Y9489D1*
G37*
G36*
X13393Y9628D2*
X13533Y9768D1*
X13980Y9322D1*
X13840Y9182D1*
X13393Y9628D1*
G37*
G36*
X14341Y9182D2*
X14200Y9322D1*
X14647Y9768D1*
X14787Y9628D1*
X14341Y9182D1*
G37*
G36*
X14480Y9042D2*
X14340Y9183D1*
X14786Y9629D1*
X14926Y9489D1*
X14480Y9042D1*
G37*
G36*
X14619Y8903D2*
X14479Y9043D1*
X14925Y9490D1*
X15066Y9350D1*
X14619Y8903D1*
G37*
G36*
X14758Y8764D2*
X14618Y8904D1*
X15065Y9351D1*
X15205Y9210D1*
X14758Y8764D1*
G37*
G36*
X14897Y8625D2*
X14757Y8765D1*
X15204Y9212D1*
X15344Y9071D1*
X14897Y8625D1*
G37*
G36*
X15037Y8486D2*
X14896Y8626D1*
X15343Y9072D1*
X15483Y8932D1*
X15037Y8486D1*
G37*
G36*
X15176Y8346D2*
X15036Y8487D1*
X15482Y8933D1*
X15622Y8793D1*
X15176Y8346D1*
G37*
G36*
X15315Y8207D2*
X15175Y8347D1*
X15621Y8794D1*
X15762Y8654D1*
X15315Y8207D1*
G37*
G36*
X15454Y8068D2*
X15314Y8208D1*
X15760Y8655D1*
X15901Y8515D1*
X15454Y8068D1*
G37*
G36*
X15593Y7929D2*
X15453Y8069D1*
X15900Y8516D1*
X16040Y8375D1*
X15593Y7929D1*
G37*
G36*
X15733Y7790D2*
X15592Y7930D1*
X16039Y8376D1*
X16179Y8236D1*
X15733Y7790D1*
G37*
G36*
X15872Y7650D2*
X15732Y7791D1*
X16178Y8237D1*
X16318Y8097D1*
X15872Y7650D1*
G37*
G36*
X15732Y7290D2*
X15872Y7430D1*
X16318Y6983D1*
X16178Y6843D1*
X15732Y7290D1*
G37*
G36*
X15592Y7150D2*
X15733Y7291D1*
X16179Y6844D1*
X16039Y6704D1*
X15592Y7150D1*
G37*
G36*
X15453Y7011D2*
X15593Y7152D1*
X16040Y6705D1*
X15900Y6565D1*
X15453Y7011D1*
G37*
G36*
X15314Y6872D2*
X15454Y7012D1*
X15901Y6566D1*
X15760Y6425D1*
X15314Y6872D1*
G37*
G36*
X15175Y6733D2*
X15315Y6873D1*
X15762Y6427D1*
X15621Y6286D1*
X15175Y6733D1*
G37*
G36*
X15036Y6594D2*
X15176Y6734D1*
X15622Y6287D1*
X15482Y6147D1*
X15036Y6594D1*
G37*
G36*
X14896Y6454D2*
X15037Y6595D1*
X15483Y6148D1*
X15343Y6008D1*
X14896Y6454D1*
G37*
G36*
X14757Y6315D2*
X14897Y6456D1*
X15344Y6009D1*
X15204Y5869D1*
X14757Y6315D1*
G37*
G36*
X14618Y6176D2*
X14758Y6316D1*
X15205Y5870D1*
X15065Y5730D1*
X14618Y6176D1*
G37*
G36*
X14479Y6037D2*
X14619Y6177D1*
X15066Y5731D1*
X14925Y5590D1*
X14479Y6037D1*
G37*
G36*
X14340Y5898D2*
X14480Y6038D1*
X14926Y5591D1*
X14786Y5451D1*
X14340Y5898D1*
G37*
G36*
X14200Y5758D2*
X14341Y5899D1*
X14787Y5452D1*
X14647Y5312D1*
X14200Y5758D1*
G37*
G36*
X13533Y5312D2*
X13393Y5452D1*
X13840Y5899D1*
X13980Y5758D1*
X13533Y5312D1*
G37*
G36*
X13394Y5451D2*
X13254Y5591D1*
X13700Y6038D1*
X13841Y5898D1*
X13394Y5451D1*
G37*
G36*
X13255Y5590D2*
X13115Y5731D1*
X13561Y6177D1*
X13702Y6037D1*
X13255Y5590D1*
G37*
G36*
X13116Y5730D2*
X12975Y5870D1*
X13422Y6316D1*
X13562Y6176D1*
X13116Y5730D1*
G37*
G36*
X12977Y5869D2*
X12836Y6009D1*
X13283Y6456D1*
X13423Y6315D1*
X12977Y5869D1*
G37*
G36*
X12837Y6008D2*
X12697Y6148D1*
X13144Y6595D1*
X13284Y6454D1*
X12837Y6008D1*
G37*
G36*
X12698Y6147D2*
X12558Y6287D1*
X13004Y6734D1*
X13145Y6594D1*
X12698Y6147D1*
G37*
G36*
X12559Y6286D2*
X12419Y6427D1*
X12865Y6873D1*
X13006Y6733D1*
X12559Y6286D1*
G37*
G36*
X12420Y6425D2*
X12280Y6566D1*
X12726Y7012D1*
X12866Y6872D1*
X12420Y6425D1*
G37*
G36*
X12281Y6565D2*
X12140Y6705D1*
X12587Y7152D1*
X12727Y7011D1*
X12281Y6565D1*
G37*
G36*
X12141Y6704D2*
X12001Y6844D1*
X12448Y7291D1*
X12588Y7150D1*
X12141Y6704D1*
G37*
G36*
X12002Y6843D2*
X11862Y6983D1*
X12308Y7430D1*
X12449Y7290D1*
X12002Y6843D1*
G37*
D46*
X10969Y6437D3*
Y7343D3*
X9512Y6437D3*
Y7343D3*
M02*
