G04 DipTrace Beta 2.3.5.2*
%INTop_Layer-GMaple-mini.GTL*%
%MOIN*%
%ADD14C,0.008*%
%ADD15C,0.016*%
%ADD25R,0.063X0.0709*%
%ADD28R,0.0591X0.0591*%
%ADD30C,0.0591*%
%ADD32R,0.0906X0.0197*%
%ADD33R,0.0984X0.0787*%
%ADD35R,0.0276X0.0354*%
%ADD38C,0.027*%
%ADD40C,0.04*%
%FSLAX44Y44*%
G04*
G70*
G90*
G75*
G01*
%LNTop*%
%LPD*%
X7490Y6565D2*
D14*
X9365D1*
X10115Y5815D1*
X13615D1*
X13803Y6003D1*
X14927D1*
X15615Y5315D1*
Y4565D1*
X15590Y4540D1*
X7490Y8065D2*
Y7065D1*
X7740Y6815D1*
X9365D1*
X10196Y5984D1*
X13534D1*
X13740Y6190D1*
X14990D1*
X16590Y4590D1*
Y4540D1*
X22183Y7225D2*
X23797D1*
X16830Y6873D2*
X17148Y7190D1*
X17429D1*
X18242Y6378D1*
X19117D1*
X19492Y6003D1*
X20367D1*
X20867Y6503D1*
X21267D1*
X21989Y7225D1*
X22183D1*
X10115Y8440D2*
X9865Y8190D1*
Y7315D1*
X10115Y7065D1*
X10740D1*
X11365Y7690D1*
X11990D1*
X12115Y7565D1*
X13539Y7540D2*
X13543Y7536D1*
X14089D1*
X18940Y6714D2*
X19271D1*
X19634Y6351D1*
X6740Y6930D2*
D15*
X6250Y6440D1*
X6178D1*
X5851Y6114D1*
Y6049D1*
X6740Y7875D2*
D14*
X5939D1*
X5995Y7931D1*
X18940Y7226D2*
X18941Y7225D1*
X19483D1*
X21097D1*
X18929Y6128D2*
X16054D1*
X14641Y7540D1*
X17662Y6458D2*
X16427D1*
X15191Y7693D1*
X22988Y7531D2*
X23312Y7855D1*
X23797D1*
X22988Y7531D2*
X22664Y7855D1*
X22183D1*
X6740Y8190D2*
D15*
Y8440D1*
X6865Y8565D1*
X7365D1*
X18240Y7940D2*
X17623D1*
X16977Y8586D1*
X15913D1*
X15392Y8065D1*
X13373D1*
X12605Y8833D1*
X9883D1*
X9490Y8440D1*
X7615D1*
X7490Y8565D1*
X7365D1*
X6740Y7560D2*
D14*
X6735Y7565D1*
X6115D1*
X5989Y7439D1*
Y7191D1*
X10240Y7315D2*
Y7940D1*
X10615Y8315D1*
X12615D1*
X12990Y7940D1*
X11615Y6315D2*
X12365D1*
X12990Y6940D1*
Y7440D1*
X18554Y8378D2*
X19077Y7855D1*
X19483D1*
X21097D1*
D38*
X7490Y6565D3*
Y8065D3*
X13615Y8565D3*
D40*
X21224Y8960D3*
X20429Y7566D3*
D38*
X12179Y9316D3*
X16830Y6873D3*
X10115Y8440D3*
X12115Y7565D3*
X14085Y5608D3*
X9412Y5958D3*
D3*
X8536Y8753D3*
X5865Y9065D3*
X9240Y7815D3*
X10790Y7890D3*
X11907Y6610D3*
X15528Y7725D3*
X14089Y7536D3*
X17647Y8480D3*
X17293Y6868D3*
D40*
X19634Y6351D3*
D3*
X22180Y6753D3*
X20249Y8420D3*
X5851Y6049D3*
D38*
X11145Y9144D3*
D40*
X5851Y6049D3*
D38*
X5995Y7931D3*
X18929Y6128D3*
X17662Y6458D3*
X15191Y7693D3*
X22988Y7531D3*
D3*
D40*
X7365Y8565D3*
D38*
X18240Y7940D3*
X5989Y7191D3*
X10240Y7315D3*
X12990Y7940D3*
X11615Y6315D3*
X12990Y7440D3*
X11740Y7315D3*
X8115D3*
X16405Y8324D3*
X17390Y7645D3*
D40*
X20993Y6065D3*
D38*
X15023Y5225D3*
D40*
X18303Y6847D3*
D38*
X18554Y8378D3*
D25*
X13539Y7540D3*
X14641D3*
D28*
X4590Y10540D3*
D30*
X5590D3*
X6590D3*
X7590D3*
X8590D3*
X9590D3*
X10590D3*
X11590D3*
X12590D3*
X13590D3*
X14590D3*
X15590D3*
X16590D3*
X17590D3*
X18590D3*
X19590D3*
X20590D3*
X21590D3*
X22590D3*
X23590D3*
D28*
Y4540D3*
D30*
X22590D3*
X21590D3*
X20590D3*
X19590D3*
X18590D3*
X17590D3*
X16590D3*
X15590D3*
X14590D3*
X13590D3*
X12590D3*
X11590D3*
X10590D3*
X9590D3*
X8590D3*
X7590D3*
X6590D3*
X5590D3*
X4590D3*
D32*
X6740Y8190D3*
Y7875D3*
Y7560D3*
Y7245D3*
Y6930D3*
D33*
X6701Y9312D3*
Y5808D3*
X4535Y9312D3*
Y5808D3*
D35*
X18940Y6714D3*
Y7226D3*
G36*
X23620Y8052D2*
X23974D1*
Y7658D1*
X23620D1*
Y8052D1*
G37*
G36*
X22006D2*
X22360D1*
Y7658D1*
X22006D1*
Y8052D1*
G37*
G36*
Y7422D2*
X22360D1*
Y7028D1*
X22006D1*
Y7422D1*
G37*
G36*
X23620D2*
X23974D1*
Y7028D1*
X23620D1*
Y7422D1*
G37*
G36*
X21274Y7658D2*
X20920D1*
Y8052D1*
X21274D1*
Y7658D1*
G37*
G36*
X19660D2*
X19306D1*
Y8052D1*
X19660D1*
Y7658D1*
G37*
G36*
Y7028D2*
X19306D1*
Y7422D1*
X19660D1*
Y7028D1*
G37*
G36*
X21274D2*
X20920D1*
Y7422D1*
X21274D1*
Y7028D1*
G37*
M02*
